<?xml version="1.0" encoding="UTF-8" standalone="no"?>
<!-- Created with Inkscape (http://www.inkscape.org/) -->

<svg
   width="140mm"
   height="140mm"
   viewBox="0 0 140 140"
   version="1.1"
   id="svg5"
   inkscape:version="1.1.2 (0a00cf5339, 2022-02-04)"
   sodipodi:docname="fakecamlogo.svg"
   xmlns:inkscape="http://www.inkscape.org/namespaces/inkscape"
   xmlns:sodipodi="http://sodipodi.sourceforge.net/DTD/sodipodi-0.dtd"
   xmlns="http://www.w3.org/2000/svg"
   xmlns:svg="http://www.w3.org/2000/svg">
  <sodipodi:namedview
     id="namedview7"
     pagecolor="#ffffff"
     bordercolor="#666666"
     borderopacity="1.0"
     inkscape:pageshadow="2"
     inkscape:pageopacity="0.0"
     inkscape:pagecheckerboard="0"
     inkscape:document-units="mm"
     showgrid="false"
     fit-margin-top="0"
     fit-margin-left="0"
     fit-margin-right="0"
     fit-margin-bottom="0"
     inkscape:zoom="0.75098906"
     inkscape:cx="374.17323"
     inkscape:cy="27.963124"
     inkscape:window-width="1920"
     inkscape:window-height="1043"
     inkscape:window-x="1920"
     inkscape:window-y="0"
     inkscape:window-maximized="1"
     inkscape:current-layer="layer1"
     inkscape:snap-global="false" />
  <defs
     id="defs2" />
  <g
     inkscape:label="Ebene 1"
     inkscape:groupmode="layer"
     id="layer1"
     transform="translate(-41.938657,-90.919328)">
    <g
       id="g1916"
       transform="matrix(1.0014677,0,0,1.0014677,-8.6935367,109.48409)">
      <path
         inkscape:connector-curvature="0"
         d="m 126.43049,19.615997 c 0,0 7.50675,-3.667468 8.36831,-2.437156 0.86071,1.231159 -1.72311,8.045635 -1.72311,8.045635 l -6.6452,-5.608479"
         style="fill:#27923f;fill-opacity:1;fill-rule:nonzero;stroke:none;stroke-width:0.0838086"
         id="path222-7" />
      <path
         inkscape:connector-curvature="0"
         d="m 136.39787,34.777019 c 0,0 5.90769,0.879158 6.15325,2.531851 0.24639,1.65272 -7.26036,3.321367 -7.26036,3.321367 l 1.10711,-5.853218"
         style="fill:#27923f;fill-opacity:1;fill-rule:nonzero;stroke:none;stroke-width:0.0838086"
         id="path226-69" />
      <path
         inkscape:connector-curvature="0"
         d="m 133.81405,43.706019 c 0,0 4.30693,2.038217 4.18373,3.260989 -0.12236,1.223619 -7.01396,1.223619 -7.01396,1.223619 l 2.83023,-4.484608"
         style="fill:#27923f;fill-opacity:1;fill-rule:nonzero;stroke:none;stroke-width:0.0838086"
         id="path228-81" />
      <path
         inkscape:connector-curvature="0"
         d="m 113.31691,20.413028 c -0.84312,0.209524 0.0168,-4.727654 0.96632,-5.21208 0.94872,-0.482732 4.82487,2.655068 4.08735,3.393414 -0.73835,0.738373 -3.46046,1.422241 -5.05367,1.818666"
         style="fill:#27923f;fill-opacity:1;fill-rule:nonzero;stroke:none;stroke-width:0.0838086"
         id="path274-0" />
      <g
         id="g1821">
        <path
           inkscape:connector-curvature="0"
           d="m 99.479234,67.019117 c 0,0 -4.617869,-0.491939 -6.000716,0 -1.382009,0.491967 2.37263,6.522006 2.37263,6.522006 0,0 3.382523,-4.43013 3.628086,-6.522006"
           style="fill:#27923f;fill-opacity:1;fill-rule:nonzero;stroke:none;stroke-width:0.0838086"
           id="path198-89" />
        <path
           inkscape:connector-curvature="0"
           d="m 93.478518,76.740941 c 0,0 -5.073787,-1.877298 -6.058543,-1.308259 -0.984752,0.569912 1.107115,6.476762 1.107115,6.476762 0,0 4.174521,-2.702825 4.951428,-5.168503"
           style="fill:#27923f;fill-opacity:1;fill-rule:nonzero;stroke:none;stroke-width:0.0838086"
           id="path200-2" />
        <path
           inkscape:connector-curvature="0"
           d="m 85.081709,83.84794 c 0,0 -3.814979,-3.168809 -5.045294,-2.800059 -1.230313,0.369597 -0.492794,5.753497 -0.492794,5.753497 0,0 4.553333,-1.138132 5.538088,-2.953438"
           style="fill:#27923f;fill-opacity:1;fill-rule:nonzero;stroke:none;stroke-width:0.0838086"
           id="path202-2" />
        <path
           inkscape:connector-curvature="0"
           d="m 75.236683,87.447543 c 0,0 -0.738357,-4.553347 -1.353513,-4.430157 -0.615159,0.12237 -2.707026,2.584662 -2.953425,3.198998 -0.246398,0.616003 2.830224,2.461472 4.306938,1.231159"
           style="fill:#27923f;fill-opacity:1;fill-rule:nonzero;stroke:none;stroke-width:0.0838086"
           id="path204-31" />
        <path
           inkscape:connector-curvature="0"
           d="m 97.754447,100.00043 c -2.701999,0.24387 -15.992406,-0.495322 -22.519442,-2.953433 -2.584664,-0.974699 -4.837445,-3.18307 -6.460823,-5.567415 -2.467335,-3.633126 -3.462983,-7.664318 -1.905815,-8.336466 1.011574,-0.433308 1.910003,0.65958 3.365765,1.752442 2.265352,1.700477 5.880867,3.400107 13.373377,-0.645319 2.798379,-1.512755 5.16095,-3.337295 7.139678,-5.264044 3.700161,-3.581162 6.047648,-7.494191 7.413731,-10.278322 0.546433,0.111469 1.092869,0.266515 1.624216,0.443336 0.09638,9.273461 0.08884,30.657297 -2.030687,30.849221"
           style="fill:#8ad143;fill-opacity:1;fill-rule:nonzero;stroke:none;stroke-width:0.0838086"
           id="path206-8" />
        <path
           inkscape:connector-curvature="0"
           d="M 95.892214,100.0415 C 91.23328,99.98533 80.787342,99.138025 75.235005,97.046997 c -2.584664,-0.974699 -4.837445,-3.18307 -6.460823,-5.567415 1.173324,0.597561 2.280438,1.402953 3.499858,1.919208 1.296522,0.54729 2.66931,0.75094 4.068919,0.75094 1.978728,0 4.011091,-0.406479 5.957133,-0.817139 1.757474,-0.36875 3.66999,-0.834734 4.7704,-2.259489 0.657061,-0.841428 0.930278,-1.919234 1.181706,-2.960952 0.715727,-2.938356 1.816137,-6.054354 2.494989,-9.125955 1.351836,-1.308259 2.523485,-2.660941 3.531706,-3.986795 0.05364,1.080294 0.172646,2.158921 0.36708,3.219106 0.03436,0.186055 0.07124,0.36875 0.110631,0.550625 -1.195115,1.935982 -2.239373,4.773744 -2.288821,8.804116 -0.05364,4.121732 1.526159,8.605493 3.424431,12.468253"
           style="fill:#70c72d;fill-opacity:1;fill-rule:nonzero;stroke:none;stroke-width:0.0838086"
           id="path208-34" />
        <path
           inkscape:connector-curvature="0"
           d="m 96.744551,110.32233 c 0,0 -1.134775,-0.25815 -2.217584,0 -1.082813,0.25813 -1.211877,0.95375 -0.902621,0.92776 0.309253,-0.0251 2.012249,0.28411 2.321504,0.43916 0.309256,0.1542 0.798701,-1.36692 0.798701,-1.36692"
           style="fill:#27923f;fill-opacity:1;fill-rule:nonzero;stroke:none;stroke-width:0.0838086"
           id="path210-2" />
        <path
           inkscape:connector-curvature="0"
           d="m 95.850307,111.618 c 0,0 -1.15656,0.11819 -2.100247,0.70903 -0.943689,0.59084 -0.843119,1.29148 -0.55817,1.16829 0.284115,-0.12319 1.995492,-0.37462 2.339107,-0.32684 0.342778,0.0478 0.31931,-1.55048 0.31931,-1.55048"
           style="fill:#27923f;fill-opacity:1;fill-rule:nonzero;stroke:none;stroke-width:0.0838086"
           id="path212-2" />
        <path
           inkscape:connector-curvature="0"
           d="m 96.074917,112.71758 c 0,0 -0.971344,0.64029 -1.536216,1.59991 -0.564036,0.95962 -0.150858,1.53453 0.04525,1.294 0.195276,-0.24136 1.597398,-1.2546 1.923415,-1.3711 0.325176,-0.11565 -0.432453,-1.52281 -0.432453,-1.52281"
           style="fill:#27923f;fill-opacity:1;fill-rule:nonzero;stroke:none;stroke-width:0.0838086"
           id="path214-45" />
        <path
           inkscape:connector-curvature="0"
           d="m 136.449,110.32233 c 0,0 1.13477,-0.25815 2.21758,0 1.08281,0.25813 1.21187,0.95375 0.90178,0.92776 -0.30925,-0.0251 -2.01057,0.28411 -2.31983,0.43916 -0.30926,0.1542 -0.79953,-1.36692 -0.79953,-1.36692"
           style="fill:#27923f;fill-opacity:1;fill-rule:nonzero;stroke:none;stroke-width:0.0838086"
           id="path216-1" />
        <path
           inkscape:connector-curvature="0"
           d="m 137.34324,111.618 c 0,0 1.15739,0.11819 2.10108,0.70903 0.94369,0.59084 0.84312,1.29148 0.55817,1.16829 -0.28579,-0.12319 -1.99717,-0.37462 -2.33911,-0.32684 -0.34277,0.0478 -0.32014,-1.55048 -0.32014,-1.55048"
           style="fill:#27923f;fill-opacity:1;fill-rule:nonzero;stroke:none;stroke-width:0.0838086"
           id="path218-7" />
        <path
           inkscape:connector-curvature="0"
           d="m 137.11946,112.71758 c 0,0 0.97135,0.64029 1.53622,1.59991 0.56404,0.95962 0.15002,1.53453 -0.0452,1.294 -0.19612,-0.24136 -1.5974,-1.2546 -1.92342,-1.3711 -0.32601,-0.11565 0.43245,-1.52281 0.43245,-1.52281"
           style="fill:#27923f;fill-opacity:1;fill-rule:nonzero;stroke:none;stroke-width:0.0838086"
           id="path220-5" />
        <path
           inkscape:connector-curvature="0"
           d="m 112.11593,100.43623 h -0.008 l -0.008,0.007 c -2.14802,0.81212 -2.16311,4.4821 -0.98141,7.43554 1.10712,2.79167 2.69446,5.13916 -4.29017,6.63096 -0.41318,0.0888 -0.84898,0.17682 -1.32167,0.25813 -8.491508,1.47671 -12.18245,-1.23283 -9.968221,-3.56609 1.286467,-1.35937 3.61216,-1.22443 5.143351,-1.0895 1.1046,0.0972 1.79518,0.19527 1.38368,-0.26902 -0.98894,-1.10797 -9.723502,-12.670239 -9.598627,-22.269693 0.118171,-9.598633 5.877515,-12.433881 5.877515,-12.433881 l 0.0075,0.09554 c 0.088,0.931121 0.937821,8.602133 4.969032,15.779538 1.95609,3.477233 4.39409,5.574109 6.26135,6.903323 h 0.008 c 2.2377,1.587341 3.66999,2.0751 2.52516,2.518463"
           style="fill:#8ad143;fill-opacity:1;fill-rule:nonzero;stroke:none;stroke-width:0.0838086"
           id="path230-3" />
        <path
           inkscape:connector-curvature="0"
           d="m 137.6483,111.20146 c 2.21591,2.33326 -1.47587,5.0428 -9.96739,3.56608 -0.96715,-0.1693 -1.80189,-0.34697 -2.51762,-0.5389 -5.59005,-1.50603 -4.13513,-3.73618 -3.08668,-6.35018 1.01912,-2.56958 1.14483,-5.67804 -0.25058,-6.97794 l -0.17768,-0.13996 c -0.16259,-0.13994 -0.34697,-0.24387 -0.55398,-0.31764 -2.14886,-0.812082 4.47456,-1.771699 8.77144,-9.428476 4.30526,-7.656777 4.98495,-15.875079 4.98495,-15.875079 0,0 0.11733,0.05866 0.32434,0.191929 1.21104,0.760148 5.44171,4.01611 5.55234,12.241953 0.12655,9.599453 -8.61639,21.161743 -9.59863,22.269683 -0.4115,0.4643 0.27824,0.36624 1.38117,0.26903 1.52951,-0.13493 3.85185,-0.26987 5.13832,1.0895"
           style="fill:#8ad143;fill-opacity:1;fill-rule:nonzero;stroke:none;stroke-width:0.0838086"
           id="path232-3" />
        <path
           inkscape:connector-curvature="0"
           d="m 135.62515,79.525072 c 1.10041,11.836347 -4.80643,18.311415 -11.93186,20.667268 -0.52381,0.18439 -1.056,0.33189 -1.59405,0.45759 -0.14834,0.0369 -0.30339,0.0738 -0.45089,0.11063 -1.07862,0.22881 -2.16311,0.37716 -3.24843,0.44336 -2.14132,0.1257 -4.26084,-0.11816 -6.28399,-0.76769 h -0.008 c -1.42475,-0.443336 -2.79838,-1.078627 -4.09071,-1.920055 -4.73939,-3.064907 -8.372505,-8.77898 -9.303621,-17.359338 -0.220419,-2.096903 -0.339429,-4.068075 -0.361215,-5.921931 l -0.0075,-0.09554 c -0.155046,-10.699036 2.451416,-17.46242 1.912526,-21.006699 -0.635277,-4.172003 -0.54644,-4.260004 -2.812631,-4.260004 -2.267032,0 -13.962554,-1.543738 -18.504156,-3.809947 -0.279924,-0.140784 -0.553141,-0.28829 -0.81211,-0.435795 -3.905493,-2.185749 -5.205367,-4.807294 -4.356383,-7.184099 0,0 -1.720596,-1.270555 -1.809435,-4.172003 -0.09554,-2.902294 1.174163,-3.536738 1.174163,-3.536738 0,0 -0.279922,-3.26435 1.314124,-3.447891 1.588177,-0.177668 1.771719,2.901447 1.771719,2.901447 0,0 1.543759,0.184388 2.541085,0.361236 0,0 0.273216,-2.628265 1.816137,-2.539418 1.536215,0.09554 1.262999,2.724626 1.536215,2.997015 0.272378,0.274055 10.520527,0.08882 14.604532,-0.09554 4.08317,-0.176848 6.62341,-2.081821 6.80025,-4.984115 0.1408,-2.163101 0.87915,-5.072116 4.43014,-7.021513 1.21858,-0.664607 2.7615,-1.218591 4.73268,-1.595728 1.15237,-0.213704 2.31899,-0.398092 3.48478,-0.501174 6.67537,-0.635265 13.54267,0.944536 19.09501,10.203735 6.53457,10.884244 -4.53323,20.771194 -4.26001,24.853503 0.24305,3.67755 2.69529,11.25302 4.17117,23.465658 0.16259,1.344295 0.31763,2.739707 0.45005,4.193778"
           style="fill:#8ad143;fill-opacity:1;fill-rule:nonzero;stroke:none;stroke-width:0.0838086"
           id="path234-3" />
        <path
           inkscape:connector-curvature="0"
           d="m 90.743835,39.672287 c -0.235503,0 -0.471845,-0.0074 -0.706509,-0.01746 C 87.283368,39.53833 84.541981,39.103356 81.886077,38.360829 80.981779,38.107702 79.888912,37.531942 80.010435,36.6 c 0.10476,-0.802058 1.046771,-1.162447 1.838765,-1.325853 0.812948,-0.16846 3.946559,-0.673841 6.895793,-0.673841 3.286984,0 6.343493,0.628571 5.695651,3.055673 -0.225447,0.843968 -0.981401,1.467485 -1.807758,1.752441 -0.6051,0.208703 -1.246238,0.264001 -1.889051,0.264001"
           style="fill:#a8da44;fill-opacity:1;fill-rule:nonzero;stroke:none;stroke-width:0.0838086"
           id="path236-7" />
        <path
           inkscape:connector-curvature="0"
           d="m 100.3366,37.490745 c -0.383011,0 -0.770205,-0.07543 -1.148186,-0.150019 -0.646165,-0.128217 -1.291495,-0.256461 -1.938496,-0.384678 -0.218744,-0.04358 -0.453409,-0.09469 -0.606777,-0.256461 -0.274055,-0.285776 -0.145828,-0.792823 0.159237,-1.04341 0.305901,-0.251434 0.721593,-0.310092 1.115496,-0.343615 0.414012,-0.03522 0.828869,-0.05281 1.242886,-0.05281 0.549783,0 1.09789,0.03101 1.64349,0.09303 l 0.0939,0.08633 c 0.0846,-0.04191 0.17264,-0.06035 0.26064,-0.06035 0.43832,0 0.86826,0.466831 0.83055,0.936149 -0.0469,0.563192 -0.57074,0.99314 -1.12137,1.11969 -0.17516,0.0394 -0.35283,0.05614 -0.53134,0.05614"
           style="fill:#a8da44;fill-opacity:1;fill-rule:nonzero;stroke:none;stroke-width:0.0838086"
           id="path238-9" />
        <path
           inkscape:connector-curvature="0"
           d="m 78.128925,45.62692 c -3.150375,-1.763342 -4.605295,-3.809127 -4.604459,-5.782813 0,-0.473524 0.08381,-0.942022 0.248076,-1.401286 v 0 0 c 0,0 -1.720596,-1.270555 -1.809435,-4.172003 -0.0034,-0.108108 -0.005,-0.212883 -0.005,-0.314298 0.0016,-2.634112 1.179192,-3.22244 1.179192,-3.22244 v 0 0 c 0,0 -0.01929,-0.220424 -0.01929,-0.549778 0,-0.937842 0.153371,-2.762355 1.3334,-2.898113 0.04442,-0.005 0.088,-0.0074 0.129905,-0.0074 1.468329,0 1.641813,2.908987 1.641813,2.908987 0,0 1.543759,0.184389 2.541085,0.36121 0,0 0.263999,-2.541905 1.739874,-2.541905 0.02514,0 0.05028,0 0.07627,0.0026 1.536216,0.09554 1.262999,2.724627 1.536216,2.997015 0.09889,0.100568 1.528672,0.139118 3.502371,0.139118 3.431971,0 8.509111,-0.117343 11.102157,-0.234659 4.08317,-0.176847 6.62342,-2.081821 6.80025,-4.984115 0.1408,-2.163101 0.87916,-5.072115 4.43014,-7.021512 -0.24305,0.457597 -0.43581,0.981392 -0.57577,1.57226 -0.62018,2.665941 0.27992,5.597578 -0.73165,8.144536 -1.0627,2.665122 -3.99349,4.172003 -6.84467,4.525672 -0.640302,0.07879 -1.282276,0.110622 -1.925089,0.110622 -2.210877,0 -4.43265,-0.378804 -6.646881,-0.568219 -1.113822,-0.0947 -2.231829,-0.142478 -3.348162,-0.142478 -2.866263,0 -5.730012,0.313451 -8.524198,0.940355 -1.336751,0.294984 -2.769047,0.738346 -3.530031,1.868091 -0.767688,1.136438 -0.295844,3.086682 1.055992,3.240881 -1.772557,0 -2.127067,2.702851 -1.144828,4.179543 0.679691,1.025843 1.691261,1.860577 2.392743,2.850357 M 80.33731,29.549239 c -0.350322,0 -0.556493,0.683895 -0.599234,1.367763 -0.04274,0.683895 0.07711,1.367764 0.381331,1.367764 0.01675,0 0.03436,-0.0026 0.0528,-0.0066 0.671312,-0.1651 0.997326,-2.69613 0.176001,-2.728806 -0.0034,0 -0.0067,0 -0.0109,0 m -5.731687,-1.11887 c -0.0067,0 -0.01257,0 -0.01929,0 -0.703157,0.03437 -0.598395,2.745581 -0.005,2.745581 0.02262,0 0.04609,-0.0042 0.0704,-0.01164 0.647842,-0.221244 0.753443,-2.73468 -0.04609,-2.73468"
           style="fill:#a8da44;fill-opacity:1;fill-rule:nonzero;stroke:none;stroke-width:0.0838086"
           id="path240-8" />
        <path
           inkscape:connector-curvature="0"
           d="m 106.82927,114.50942 c 1.263,-2.56289 2.3852,-5.21375 1.05599,-7.54616 -0.82719,-1.45491 -2.51008,-2.42961 -2.84279,-4.06892 -0.37631,-1.87563 1.22528,-3.536737 2.97521,-4.378165 v 0 c 1.29233,0.841428 2.66596,1.476719 4.09071,1.920055 l -0.008,0.007 c -1.23786,0.4685 -1.76753,1.88487 -1.76753,3.56609 -7.9e-4,1.237 0.28495,2.61733 0.78612,3.86945 0.45006,1.13392 0.97889,2.19495 0.98057,3.15457 0.002,1.40295 -1.12388,2.59051 -5.27074,3.47639"
           style="fill:#70c72d;fill-opacity:1;fill-rule:nonzero;stroke:none;stroke-width:0.0838086"
           id="path242-6" />
        <path
           inkscape:connector-curvature="0"
           d="m 132.14457,115.18741 c -1.29484,0 -2.7858,-0.12821 -4.46366,-0.41987 -0.96715,-0.1693 -1.80189,-0.34697 -2.51762,-0.5389 v 0 c -0.0964,-1.14482 0.0151,-2.29634 0.36206,-3.41185 0.44251,-1.4323 1.24707,-2.7464 1.52783,-4.21558 0.33188,-1.72731 -0.10308,-3.58871 -1.17416,-4.98412 -0.53889,-0.70146 -1.351,-1.29902 -2.18573,-1.42475 v 0 0 c 6.50524,-2.150536 11.99388,-7.734726 12.06428,-17.696236 0.61935,-1.256294 1.10376,-2.683562 1.39709,-4.277598 0.0603,-0.328533 0.11399,-0.659579 0.16008,-0.991473 1.57645,1.840442 3.3423,5.072116 3.4127,10.346214 7.9e-4,0.06538 0.002,0.131577 0.002,0.196956 0.005,9.560083 -8.62477,20.972327 -9.60031,22.072727 -0.0813,0.0922 -0.11984,0.16174 -0.11984,0.21371 -8e-4,0.10141 0.14163,0.1366 0.38719,0.1366 0.26651,0 0.65455,-0.0411 1.11382,-0.0813 0.46011,-0.0411 0.99146,-0.0813 1.5446,-0.0813 1.28814,0 2.69445,0.21957 3.59372,1.1708 0.42408,0.44588 0.63192,0.90599 0.63108,1.34766 0,0.21624 -0.0503,0.42825 -0.15002,0.63275 -0.0427,0.088 -0.0955,0.17518 -0.15672,0.25982 -0.23634,0.32769 -0.60845,0.62857 -1.11214,0.88419 -1.03252,0.52464 -2.61651,0.86153 -4.71593,0.86153 M 121.8262,100.90052 v 0 l -0.17768,-0.13996 c 0.14751,-0.0369 0.30256,-0.0737 0.45089,-0.11063 v 0 0 c -0.0972,0.0813 -0.18521,0.16259 -0.27321,0.25059"
           style="fill:#70c72d;fill-opacity:1;fill-rule:nonzero;stroke:none;stroke-width:0.0838086"
           id="path244-7" />
        <path
           inkscape:connector-curvature="0"
           d="m 117.31879,101.23577 c -1.77256,0 -3.52081,-0.25982 -5.20286,-0.79954 h -0.008 v 0 c -1.42475,-0.443336 -2.79838,-1.078627 -4.09071,-1.920055 0.10392,-0.04442 0.19946,-0.08885 0.30255,-0.13327 0.41401,-0.176821 0.83473,-0.324327 1.263,-0.465138 h 0.008 c 0.81127,-0.266515 1.63594,-0.505354 2.41537,-0.820473 1.54795,0.934456 3.44957,1.439836 5.80292,1.439836 0.22629,0 0.45844,-0.0042 0.69394,-0.01429 4.32873,-0.176001 6.89998,-2.612337 8.34569,-6.649403 0.46011,-0.738346 0.95961,-1.931775 1.28311,-2.759815 2.78497,-0.682202 5.79706,-2.910682 7.62577,-6.617547 -0.0704,9.961509 -5.55904,15.545699 -12.06429,17.696235 v 0 c -0.10727,-0.0175 -0.21539,-0.0268 -0.3235,-0.0268 -0.25561,0 -0.51039,0.0503 -0.75428,0.15922 -0.19192,0.0813 -0.36205,0.19193 -0.51626,0.32518 v 0 c -0.14834,0.0369 -0.30339,0.0738 -0.45089,0.11062 v 0 c -1.07862,0.22881 -2.16311,0.37716 -3.24843,0.44336 -0.36122,0.0209 -0.7216,0.0319 -1.08114,0.0319 m 10.8675,-32.030066 c -0.12404,-1.803585 -0.29333,-3.504883 -0.528,-5.090557 0,0 0,0 0,0 v 0 0 0 c -0.30255,-2.06756 -0.71573,-3.935677 -1.30658,-5.567415 v 0 c -1.12136,-3.171349 -2.86123,-5.463514 -5.59089,-6.618394 1.46749,-4.355544 4.68073,-8.122761 6.24795,-12.511828 1.62505,-4.534058 1.38117,-9.694994 -0.6646,-14.051385 -1.59488,-3.419396 -4.3346,-6.365293 -7.81183,-7.834445 -0.76014,-0.317659 -1.55046,-0.561525 -2.36341,-0.723292 0.82971,-0.07961 1.66277,-0.124036 2.49499,-0.124036 5.86746,0 11.73743,2.219272 16.60002,10.327772 1.49264,2.487454 2.06673,4.922097 2.06757,7.247784 7.9e-4,7.727183 -6.33344,14.246675 -6.3326,17.454033 0,0.05112 0.002,0.102262 0.005,0.151712 0.0704,1.063519 0.32518,2.452238 0.68807,4.185391 -0.009,0 -0.0184,0 -0.0268,0 -0.0553,0 -0.10895,0.0085 -0.16007,0.02434 -0.20953,0.06874 -0.38217,0.266514 -0.53051,0.58248 -0.37212,-0.393885 -0.71322,-0.606769 -0.99817,-0.606769 -0.0553,0 -0.10895,0.0085 -0.15923,0.02434 -0.29501,0.09639 -0.51627,0.450056 -0.70149,1.026662 0.51543,0.362903 0.96297,0.857383 1.34094,1.506882 -0.43161,2.348336 -0.86657,6.135661 -2.27037,10.597647 m 3.19814,-42.542221 c -0.55984,0 -1.15824,0.346974 -1.76334,1.20015 -0.94285,1.329213 -0.15923,4.353851 -0.24639,5.912696 -0.10477,1.878171 -0.41319,3.745442 -0.91939,5.557388 -0.0846,0.298344 -0.17348,0.609282 -0.11733,0.914347 0.12068,0.650346 0.83306,0.966311 1.52029,0.966311 0.14834,0 0.29585,-0.01508 0.43581,-0.04442 1.33759,-0.27993 2.38604,-1.376971 2.96096,-2.616518 0.57493,-1.23952 0.75177,-2.620698 0.92106,-3.975894 0.0922,-0.743373 0.18606,-1.485079 0.27825,-2.227632 0.22796,-1.825361 -1.2035,-5.686425 -3.06992,-5.686425"
           style="fill:#70c72d;fill-opacity:1;fill-rule:nonzero;stroke:none;stroke-width:0.0838086"
           id="path246-0" />
        <path
           inkscape:connector-curvature="0"
           d="m 129.85827,41.214385 c -0.68724,0 -1.39961,-0.315966 -1.52029,-0.966312 -0.0562,-0.305064 0.0327,-0.616003 0.11732,-0.914373 0.50621,-1.811946 0.81463,-3.679217 0.91939,-5.557361 0.0872,-1.558846 -0.69645,-4.58351 0.2464,-5.912723 0.6051,-0.853149 1.20349,-1.200124 1.76334,-1.200124 1.86642,0 3.29787,3.861065 3.06992,5.686425 -0.0922,0.742553 -0.18606,1.484259 -0.27825,2.227633 -0.1693,1.355196 -0.34613,2.736374 -0.92106,3.975894 -0.57493,1.239546 -1.62338,2.336588 -2.96097,2.616517 -0.13996,0.02934 -0.28746,0.04442 -0.4358,0.04442"
           style="fill:#49b539;fill-opacity:1;fill-rule:nonzero;stroke:none;stroke-width:0.0838086"
           id="path248-4" />
        <path
           inkscape:connector-curvature="0"
           d="m 102.58854,26.894791 c 0,0 0.0285,-0.06284 0.0838,-0.178515 0.19192,-0.403119 0.69813,-1.422214 1.29988,-2.323174 0.30003,-0.450056 0.62605,-0.86995 0.93195,-1.160753 0.3059,-0.297524 0.59001,-0.434975 0.73752,-0.426588 l 0.10979,0.02011 h -8e-4 c 0.0914,0.03604 0.16343,0.103081 0.23635,0.286623 0.0679,0.180181 0.10644,0.454236 0.1056,0.776075 0.002,0.765175 -0.2045,1.780937 -0.41486,2.588843 -0.10476,0.404812 -0.21036,0.760147 -0.28914,1.013248 -0.0779,0.253127 -0.12906,0.400605 -0.12906,0.400605 -0.067,0.192776 0.0352,0.40312 0.22796,0.469345 0.19275,0.06705 0.40312,-0.03522 0.46933,-0.227965 0.002,-0.0058 0.21873,-0.631084 0.4358,-1.469999 0.21623,-0.840607 0.43665,-1.886532 0.43832,-2.774077 -7.9e-4,-0.37547 -0.0377,-0.724111 -0.15253,-1.034203 -0.11063,-0.305911 -0.32937,-0.595048 -0.66796,-0.719905 v 0 c -0.11984,-0.04527 -0.24555,-0.06707 -0.36876,-0.06707 -0.27405,0.0026 -0.5238,0.09975 -0.7526,0.240532 -0.78696,0.496994 -1.48258,1.550485 -2.04158,2.497508 -0.55063,0.945356 -0.92777,1.777603 -0.93112,1.785144 -0.0846,0.185208 -0.002,0.403939 0.18354,0.488606 0.18606,0.08379 0.4048,0.0026 0.48861,-0.184388"
           style="fill:#2b6a2f;fill-opacity:1;fill-rule:nonzero;stroke:none;stroke-width:0.0838086"
           id="path250-8" />
        <path
           inkscape:connector-curvature="0"
           d="m 112.51402,30.101329 c 0,0 0.0285,-0.06371 0.0838,-0.178514 0.19192,-0.403119 0.69813,-1.423088 1.29988,-2.324021 0.30003,-0.450056 0.62521,-0.86995 0.93195,-1.160753 0.3059,-0.297524 0.59002,-0.434975 0.73752,-0.425741 l 0.10895,0.01931 c 0.0914,0.03604 0.16343,0.103082 0.23551,0.286623 0.0687,0.180181 0.10727,0.454237 0.10643,0.77605 0.002,0.766021 -0.20449,1.780963 -0.41485,2.588868 -0.1056,0.405633 -0.21036,0.760148 -0.28915,1.013248 -0.0788,0.253101 -0.1299,0.400606 -0.1299,0.401453 -0.0662,0.191928 0.036,0.402272 0.2288,0.469318 0.19276,0.06622 0.40312,-0.03604 0.46933,-0.228786 0.002,-0.0058 0.2179,-0.631084 0.43497,-1.470025 0.21706,-0.840581 0.43748,-1.886532 0.43916,-2.774076 -7.9e-4,-0.375444 -0.0386,-0.724086 -0.15254,-1.034177 -0.11146,-0.305912 -0.32936,-0.595048 -0.66795,-0.719932 -0.11985,-0.04524 -0.24556,-0.06705 -0.36876,-0.06705 -0.27405,0.0026 -0.52381,0.09972 -0.7526,0.240533 -0.78697,0.496993 -1.48258,1.550458 -2.04243,2.497508 -0.55062,0.945356 -0.92776,1.778423 -0.93028,1.785117 -0.0846,0.186055 -0.002,0.404812 0.18355,0.488606 0.18605,0.08382 0.40479,0.0026 0.4886,-0.183542"
           style="fill:#2b6a2f;fill-opacity:1;fill-rule:nonzero;stroke:none;stroke-width:0.0838086"
           id="path252-4" />
        <path
           inkscape:connector-curvature="0"
           d="m 122.87867,39.74436 c -0.61852,0 -1.30072,-0.09887 -1.99633,-0.307579 -2.18406,-0.652859 -3.66915,-2.135452 -3.31716,-3.311286 0.2397,-0.801212 1.27055,-1.252935 2.59305,-1.252935 0.61935,0 1.30155,0.0989 1.99716,0.306732 2.18406,0.653706 3.66832,2.136298 3.31632,3.311287 -0.23969,0.801211 -1.27054,1.253781 -2.59304,1.253781"
           style="fill:#eb848e;fill-opacity:1;fill-rule:nonzero;stroke:none;stroke-width:0.0838086"
           id="path254-8" />
        <path
           inkscape:connector-curvature="0"
           d="m 115.30737,22.916383 0.009,-0.0093 c 0.11398,-0.12319 1.2806,-1.213538 2.68356,-1.201817 0.3411,0 0.69981,0.06035 1.07527,0.21037 0.5875,0.23802 0.92357,0.65286 1.14064,1.166601 0.21287,0.511255 0.27992,1.113843 0.27908,1.625891 0,0.326867 -0.026,0.61685 -0.052,0.823013 -0.0134,0.102262 -0.026,0.184388 -0.0352,0.239686 l -0.0151,0.07964 c -0.0419,0.199443 0.0855,0.395578 0.28579,0.437462 0.19946,0.04191 0.39474,-0.08631 0.43664,-0.285777 0.004,-0.01667 0.11817,-0.561525 0.11817,-1.294024 -7.9e-4,-0.572399 -0.0687,-1.261321 -0.33523,-1.908307 -0.264,-0.644499 -0.75344,-1.254628 -1.54879,-1.569746 -0.4643,-0.186055 -0.92106,-0.263155 -1.34932,-0.263155 -0.94537,0.0026 -1.74658,0.36539 -2.31145,0.719085 -0.56571,0.355335 -0.90011,0.70567 -0.91519,0.720751 -0.1408,0.147505 -0.13493,0.380497 0.0126,0.521282 0.1475,0.141632 0.38133,0.135784 0.52212,-0.01164"
           style="fill:#2b6a2f;fill-opacity:1;fill-rule:nonzero;stroke:none;stroke-width:0.0838086"
           id="path256-1" />
        <path
           inkscape:connector-curvature="0"
           d="m 104.84719,19.697304 0.009,-0.0093 c 0.11398,-0.123217 1.2806,-1.213565 2.68272,-1.200997 0.34195,0 0.69981,0.06035 1.07527,0.21037 0.5875,0.237173 0.92441,0.652859 1.14064,1.166627 0.21371,0.511228 0.28076,1.113817 0.27992,1.625891 0,0.32684 -0.026,0.616824 -0.052,0.822167 -0.0134,0.103081 -0.0259,0.185208 -0.036,0.239686 l -0.0143,0.07961 c -0.0419,0.199469 0.0855,0.395578 0.28496,0.437488 0.19946,0.04191 0.39557,-0.08549 0.43747,-0.284956 0.004,-0.01667 0.11818,-0.562345 0.11818,-1.293998 -8e-4,-0.573272 -0.0687,-1.262168 -0.33608,-1.908333 -0.26399,-0.645346 -0.75344,-1.254628 -1.54795,-1.569747 -0.4643,-0.186055 -0.92106,-0.263154 -1.35016,-0.263154 -0.94536,0 -1.74657,0.365416 -2.31144,0.719084 -0.56488,0.354515 -0.90011,0.704824 -0.91436,0.719905 -0.1408,0.147505 -0.13577,0.381344 0.0118,0.522129 0.1475,0.140811 0.38133,0.134937 0.52213,-0.01244"
           style="fill:#2b6a2f;fill-opacity:1;fill-rule:nonzero;stroke:none;stroke-width:0.0838086"
           id="path258-6" />
        <path
           inkscape:connector-curvature="0"
           d="m 78.756654,40.443336 c -0.576606,0.893392 -1.551302,2.267029 -1.986269,2.082641 -0.486931,-0.20701 -0.709022,-2.200804 -0.790318,-3.108457 0.900946,0.37629 1.82368,0.715724 2.776587,1.025816"
           style="fill:#e4f193;fill-opacity:1;fill-rule:nonzero;stroke:none;stroke-width:0.0838086"
           id="path260-8" />
        <path
           inkscape:connector-curvature="0"
           d="m 85.408562,42.215885 c -0.649517,1.114663 -1.764175,2.819347 -2.384361,2.576301 -0.612643,-0.243046 -0.812107,-2.133785 -0.878316,-3.343989 1.062696,0.28747 2.155563,0.538903 3.262677,0.767688"
           style="fill:#e4f193;fill-opacity:1;fill-rule:nonzero;stroke:none;stroke-width:0.0838086"
           id="path262-5" />
        <path
           inkscape:connector-curvature="0"
           d="m 92.438449,43.396747 c -0.569063,1.004041 -1.521129,2.510922 -2.067563,2.39276 -0.49531,-0.111469 -0.72327,-1.632612 -0.827193,-2.806753 0.960448,0.155045 1.927601,0.29583 2.894756,0.413993"
           style="fill:#e4f193;fill-opacity:1;fill-rule:nonzero;stroke:none;stroke-width:0.0838086"
           id="path264-2" />
        <path
           inkscape:connector-curvature="0"
           d="m 99.261331,44.068895 c -0.524645,1.181708 -1.37363,2.901473 -1.905815,2.901473 -0.574929,0 -0.967155,-1.971172 -1.151536,-3.14534 0.538893,0.05196 1.071081,0.103082 1.602428,0.147505 0.494469,0.04442 0.973857,0.07374 1.454923,0.09636"
           style="fill:#e4f193;fill-opacity:1;fill-rule:nonzero;stroke:none;stroke-width:0.0838086"
           id="path266-1" />
        <path
           inkscape:connector-curvature="0"
           d="m 107.56762,43.499855 c -0.28075,1.181682 -0.83389,3.005376 -1.50604,2.997835 -0.67969,-0.0074 -1.22612,-1.550458 -1.50688,-2.532697 1.06353,-0.103082 2.0751,-0.258128 3.01292,-0.465138"
           style="fill:#e4f193;fill-opacity:1;fill-rule:nonzero;stroke:none;stroke-width:0.0838086"
           id="path268-9" />
        <path
           inkscape:connector-curvature="0"
           d="m 80.119386,32.284538 c -0.304226,0 -0.424072,-0.683868 -0.381331,-1.367763 0.04274,-0.683869 0.248912,-1.367764 0.599233,-1.367764 0.0042,0 0.0075,0 0.0109,0 0.821328,0.0327 0.495311,2.563733 -0.175998,2.728833 -0.01844,0.0042 -0.03604,0.0066 -0.0528,0.0066"
           style="fill:#52b936;fill-opacity:1;fill-rule:nonzero;stroke:none;stroke-width:0.0838086"
           id="path270-9" />
        <path
           inkscape:connector-curvature="0"
           d="m 74.581297,31.176596 c -0.593368,0 -0.698127,-2.711212 0.005,-2.745582 0.0067,0 0.01257,0 0.01929,0 0.799536,0 0.693938,2.513436 0.0461,2.734681 -0.02429,0.0077 -0.04777,0.01164 -0.0704,0.01164"
           style="fill:#52b936;fill-opacity:1;fill-rule:nonzero;stroke:none;stroke-width:0.0838086"
           id="path272-6" />
        <path
           inkscape:connector-curvature="0"
           d="m 114.72574,39.156032 c -1.08616,1.767523 -3.65491,3.223286 -7.23522,3.983434 h -0.002 c -0.92106,0.20365 -1.91838,0.356182 -2.96851,0.458444 -1.02917,0.102235 -2.11282,0.154199 -3.24424,0.154199 -0.64952,0 -1.314959,-0.01773 -1.995488,-0.05196 h -0.0019 c -0.476869,-0.0217 -0.950389,-0.05112 -1.438159,-0.09554 h -0.0024 c -0.528836,-0.04358 -1.058505,-0.09554 -1.597395,-0.147505 -1.252107,-0.117317 -2.502535,-0.257281 -3.752123,-0.425741 h -0.0042 c -0.962128,-0.117317 -1.92509,-0.257281 -2.881349,-0.412327 h -7.94e-4 c -1.388713,-0.219578 -2.770719,-0.476885 -4.115853,-0.763508 h -0.0016 c -1.102085,-0.227965 -2.18825,-0.477705 -3.241726,-0.762662 h -0.0034 c -1.152371,-0.300884 -2.273734,-0.631084 -3.364926,-0.9965 l -0.0034,-0.0026 c -0.943689,-0.306758 -1.857206,-0.643651 -2.748095,-1.015788 l -0.0059,-0.0026 c -0.750928,-0.299191 -1.475037,-0.620183 -2.18322,-0.963797 -0.183542,-0.08885 -0.404797,-0.01244 -0.493636,0.170973 -0.08884,0.183542 -0.01172,0.404786 0.17181,0.493633 0.72327,0.350309 1.463302,0.678842 2.231829,0.9856 l 0.13661,-0.342794 -0.142476,0.34028 c 0.911003,0.380471 1.842955,0.723265 2.805081,1.036717 h -0.0034 c 1.108789,0.37211 2.246077,0.706517 3.413535,1.011582 h -0.0034 c 1.071915,0.289983 2.172325,0.543083 3.284469,0.772715 h -0.0016 c 1.357704,0.289983 2.751444,0.548958 4.153566,0.771049 h -7.93e-4 c 0.963805,0.155892 1.935985,0.296677 2.909006,0.415687 l 0.04442,-0.366237 -0.04945,0.366237 c 1.261322,0.170127 2.520971,0.310938 3.780618,0.429948 0.538054,0.05112 1.071075,0.103081 1.606616,0.147505 h -0.0024 c 0.501176,0.04524 0.98643,0.07459 1.470006,0.09721 h -0.0019 c 0.692259,0.03522 1.370277,0.05281 2.033207,0.05281 1.15404,0 2.262,-0.05363 3.31631,-0.15756 1.07527,-0.104775 2.10109,-0.261487 3.05567,-0.471858 h -0.002 c 3.68591,-0.791157 6.43317,-2.273723 7.70874,-4.316148 0.10727,-0.173487 0.0545,-0.400605 -0.11901,-0.507894 -0.17348,-0.108108 -0.40061,-0.05445 -0.50872,0.11901"
           style="fill:#27923f;fill-opacity:1;fill-rule:nonzero;stroke:none;stroke-width:0.0838086"
           id="path278-4" />
        <path
           inkscape:connector-curvature="0"
           d="m 113.09566,38.736985 c 0.031,0.01746 1.46414,1.111303 3.33307,1.118843 0.46682,0 0.96046,-0.07123 1.45744,-0.24974 0.19192,-0.06956 0.29166,-0.280776 0.22209,-0.472678 -0.0687,-0.191929 -0.27992,-0.29165 -0.47184,-0.222091 -0.40983,0.146658 -0.81546,0.206163 -1.20769,0.206163 -0.78361,0 -1.51442,-0.241379 -2.04493,-0.487759 -0.26484,-0.123217 -0.48022,-0.246407 -0.62689,-0.337767 l -0.16678,-0.108956 -0.0411,-0.02934 -0.01,-0.0066 c -0.16343,-0.123217 -0.39474,-0.08969 -0.5171,0.07374 -0.12236,0.162586 -0.0897,0.393912 0.0737,0.517102"
           style="fill:#27923f;fill-opacity:1;fill-rule:nonzero;stroke:none;stroke-width:0.0838086"
           id="path280-9" />
        <path
           inkscape:connector-curvature="0"
           d="m 128.2131,85.218217 c -0.24389,2.488274 -0.67215,4.703366 -1.33675,6.578997 -1.44068,4.083156 -4.01696,6.548834 -8.37335,6.725655 -3.66999,0.148352 -6.29823,-0.863229 -8.21829,-2.775744 -0.62019,-0.597561 -1.15908,-1.299051 -1.64685,-2.081821 -1.05599,-1.70635 -1.82368,-3.803226 -2.42123,-6.195139 -0.57577,-2.288831 -0.98979,-4.858411 -1.35854,-7.6132 -0.21372,-1.624224 -0.41402,-3.314647 -0.61349,-5.057034 -0.0587,-0.487759 -0.10308,-0.974699 -0.1475,-1.447377 -0.25813,-2.665968 -0.33943,-5.168476 -0.22126,-7.472389 0.10393,-2.082641 0.36876,-4.001875 0.8272,-5.71492 1.43229,-5.397288 4.71844,-8.794062 10.6102,-9.067297 0.15504,-0.0074 0.31009,-0.01508 0.46514,-0.01508 5.78113,-0.103081 8.88206,2.68105 10.57332,7.465695 0.59085,1.630918 1.00403,3.499856 1.30658,5.566569 0.31764,2.148866 0.5171,4.512284 0.64282,7.051675 0.0587,0.9965 0.0955,2.030703 0.13241,3.079141 0.0369,1.019122 0.0595,2.015596 0.0662,2.990295 0.0369,2.879672 -0.0436,5.559901 -0.28662,7.981976"
           style="fill:#e4f193;fill-opacity:1;fill-rule:nonzero;stroke:none;stroke-width:0.0838086"
           id="path282-9" />
        <path
           inkscape:connector-curvature="0"
           d="m 103.87584,65.879319 c 0.10393,-2.081795 0.36876,-4.001876 0.8272,-5.714921 v 0 c 0,0 0,0 0,0 -0.45844,1.713045 -0.72327,3.63228 -0.8272,5.714074 v 0"
           style="fill:#78ca33;fill-opacity:1;fill-rule:nonzero;stroke:none;stroke-width:0.0838086"
           id="path284-0" />
        <path
           inkscape:connector-curvature="0"
           d="m 127.65828,64.115157 v 0 c -0.30255,-2.067587 -0.71573,-3.935678 -1.30658,-5.566596 0,0 0,0 0,0 v 0 c 0.59085,1.631765 1.00403,3.499882 1.30658,5.567442"
           style="fill:#61c332;fill-opacity:1;fill-rule:nonzero;stroke:none;stroke-width:0.0838086"
           id="path286-8" />
        <path
           inkscape:connector-curvature="0"
           d="m 103.87584,65.879319 c 0.10393,-2.081795 0.36876,-4.001029 0.8272,-5.714074 v 0 c 2.07259,-0.579967 7.52603,-1.892406 14.10922,-2.02901 0.74506,1.899946 1.32669,3.842623 1.71976,5.892588 -4.2709,0.134937 -9.90789,0.610129 -16.65618,1.850496"
           style="fill:#c5e674;fill-opacity:1;fill-rule:nonzero;stroke:none;stroke-width:0.0838086"
           id="path288-9" />
        <path
           inkscape:connector-curvature="0"
           d="m 108.13417,79.041493 c -0.90681,-1.464125 -1.98291,-3.330549 -3.0783,-5.916904 3.59457,-0.826346 9.3472,-1.868937 16.06616,-2.07846 -0.0226,2.126244 -0.19443,4.244101 -0.48693,6.348544 -3.86359,0.226272 -8.2074,0.706491 -12.50093,1.64682"
           style="fill:#c5e674;fill-opacity:1;fill-rule:nonzero;stroke:none;stroke-width:0.0838086"
           id="path290-3" />
        <path
           inkscape:connector-curvature="0"
           d="m 108.63786,93.664484 c -0.79032,-1.277249 -1.41972,-2.774923 -1.93682,-4.451085 0.40899,-0.088 0.79535,-0.222118 1.15237,-0.401452 0.83809,0.511228 2.38604,1.400439 2.99868,1.400439 0.10728,0 0.18522,-0.0268 0.22629,-0.08885 0.27237,-0.408146 -0.91017,-2.019776 -1.55047,-2.839429 0.0243,-0.03855 0.0469,-0.0771 0.0704,-0.116496 0.11314,-0.196956 0.21623,-0.386371 0.30842,-0.569066 2.46482,-0.4953 5.49283,-0.947049 9.06979,-1.203483 -0.53218,1.975352 -1.14147,3.93147 -1.80272,5.863246 -0.0872,0.250613 -0.17768,0.50538 -0.2749,0.759327 -2.53019,0.300858 -5.31516,0.815446 -8.26104,1.646846"
           style="fill:#c5e674;fill-opacity:1;fill-rule:nonzero;stroke:none;stroke-width:0.0838086"
           id="path292-1" />
        <path
           inkscape:connector-curvature="0"
           d="m 117.80906,98.53713 c -3.31128,0 -5.72749,-1.00068 -7.52435,-2.790005 0.59923,0.01852 1.20517,0.06538 1.79854,0.06538 0.81126,0 1.59823,-0.08718 2.31396,-0.449236 1.27641,-0.647832 1.98124,-1.982893 2.50169,-3.34563 2.29469,-0.273235 4.37985,-0.370443 6.18761,-0.370443 0.94201,0 1.80859,0.0268 2.59053,0.06871 0.0863,0.405633 0.21455,0.713238 0.40312,0.807932 0.0277,0.01349 0.057,0.02011 0.0872,0.02011 0.19192,0 0.43078,-0.267361 0.68137,-0.67048 -1.4457,4.037065 -4.01696,6.473401 -8.34569,6.649402 -0.2355,0.01005 -0.46765,0.01429 -0.69394,0.01429 m 1.16746,-13.142066 c 0.7107,-2.636626 1.28312,-5.307621 1.65858,-8.000391 1.44235,-0.08382 2.81933,-0.132424 4.10077,-0.155893 -2.3081,4.119192 -4.02702,5.533046 -3.37163,8.018833 -0.82133,0.03604 -1.61667,0.08213 -2.38772,0.137451 m 8.55941,-14.276017 c -1.36525,-0.07543 -2.70871,-0.109775 -4.02283,-0.109775 -0.80876,0 -1.60746,0.01243 -2.39107,0.03686 0.005,-0.532183 0.002,-1.066033 -0.0126,-1.599909 -0.0503,-1.907487 -0.24724,-3.700145 -0.57744,-5.417397 0.99229,-0.03185 1.91084,-0.04524 2.75228,-0.04524 1.83457,0 3.30374,0.06284 4.37398,0.131577 0,0 0,0 0,0 0.23467,1.585648 0.40396,3.286972 0.528,5.09053 -0.19695,0.625237 -0.41318,1.263836 -0.65035,1.913361 M 126.3517,58.547741 c -2.19663,-0.300858 -4.36141,-0.423227 -6.43149,-0.423227 -0.37295,0 -0.74171,0.0042 -1.10795,0.01164 -0.92944,-2.368444 -2.11115,-4.67233 -3.49902,-7.03826 0.15504,-0.0074 0.31009,-0.01508 0.46514,-0.01508 0.10392,-0.0026 0.20701,-0.0026 0.30925,-0.0026 5.58335,0 8.60298,2.769049 10.26407,7.467362"
           style="fill:#d6eb77;fill-opacity:1;fill-rule:nonzero;stroke:none;stroke-width:0.0838086"
           id="path294-4" />
        <path
           inkscape:connector-curvature="0"
           d="m 127.65828,64.115157 c -1.07024,-0.06874 -2.53941,-0.131578 -4.37398,-0.131578 -0.84144,0 -1.75999,0.01349 -2.75228,0.04524 -0.39307,-2.049965 -0.9747,-3.992642 -1.71976,-5.892588 0.36624,-0.0077 0.735,-0.01164 1.10795,-0.01164 2.07008,0 4.23486,0.122343 6.43149,0.423228 0,0 0,0 0,0 0.59085,1.630944 1.00403,3.499035 1.30658,5.566595"
           style="fill:#bbe15a;fill-opacity:1;fill-rule:nonzero;stroke:none;stroke-width:0.0838086"
           id="path296-8" />
        <path
           inkscape:connector-curvature="0"
           d="m 120.6351,77.394673 c 0.2925,-2.104443 0.4643,-4.2223 0.48693,-6.348544 0.78361,-0.02434 1.58231,-0.03686 2.39107,-0.03686 1.31412,0 2.65758,0.03434 4.02283,0.109776 -0.22042,0.602588 -0.45928,1.215231 -0.71825,1.834594 -0.71489,1.708838 -1.42223,3.107611 -2.08181,4.285139 -1.28144,0.02355 -2.65842,0.07207 -4.10077,0.155892"
           style="fill:#bbe15a;fill-opacity:1;fill-rule:nonzero;stroke:none;stroke-width:0.0838086"
           id="path298-9" />
        <path
           inkscape:connector-curvature="0"
           d="m 116.8989,92.017638 c 0.0972,-0.253947 0.18773,-0.508714 0.2749,-0.759327 0.66125,-1.931776 1.27054,-3.887894 1.80272,-5.863246 0.77105,-0.05532 1.56639,-0.101415 2.38772,-0.137451 0.14918,0.566552 0.42156,1.187555 0.83809,1.91 0.0235,0.04022 0.0478,0.08046 0.0729,0.119856 -0.11063,0.142452 -0.23802,0.308399 -0.37127,0.48776 -0.26903,0.06453 -0.5456,0.115649 -0.81379,0.167613 0.13075,0.139118 0.26987,0.267362 0.41653,0.385525 -0.50955,0.740859 -0.95793,1.527836 -0.77942,1.795171 0.0411,0.06202 0.11985,0.08885 0.22712,0.08885 0.47772,0 1.52616,-0.542237 2.36174,-1.023302 0.42407,0.09972 0.87329,0.149172 1.3401,0.149172 0.27824,0 0.56236,-0.01746 0.85066,-0.05279 -0.006,0.697283 0.0176,1.715559 0.17013,2.430436 -0.78194,-0.04188 -1.64852,-0.06871 -2.59053,-0.06871 -1.80776,0 -3.89292,0.09721 -6.18761,0.370443"
           style="fill:#bbe15a;fill-opacity:1;fill-rule:nonzero;stroke:none;stroke-width:0.0838086"
           id="path300-6" />
        <path
           inkscape:connector-curvature="0"
           d="m 124.65625,89.338256 c -0.46681,0 -0.91603,-0.04945 -1.3401,-0.149172 0.23382,-0.134938 0.45173,-0.264848 0.63527,-0.377137 0.47268,0.237172 0.99648,0.393065 1.55549,0.470164 0,0.0026 0,0.0026 0,0.0034 -0.2883,0.03522 -0.57242,0.05281 -0.85066,0.05281 m -3.14954,-1.009915 c -0.14666,-0.118163 -0.28578,-0.24638 -0.41653,-0.385498 0.26819,-0.05196 0.54476,-0.103108 0.81379,-0.16764 -0.12991,0.174334 -0.26568,0.362056 -0.39726,0.553138"
           style="fill:#95d23f;fill-opacity:1;fill-rule:nonzero;stroke:none;stroke-width:0.0838086"
           id="path320-0" />
        <path
           inkscape:connector-curvature="0"
           d="m 123.31615,89.189084 c -0.67802,-0.159253 -1.2915,-0.445029 -1.80944,-0.860716 0.13158,-0.191082 0.26735,-0.378831 0.39726,-0.553138 0.0788,-0.01931 0.15756,-0.0394 0.23466,-0.06117 0.11985,-0.03352 0.23802,-0.07041 0.35451,-0.110649 0.0905,0.119857 0.18522,0.232992 0.28496,0.339434 0.33858,0.359543 0.73416,0.648679 1.17332,0.869104 -0.18354,0.112289 -0.40145,0.242199 -0.63527,0.377137"
           style="fill:#27923f;fill-opacity:1;fill-rule:nonzero;stroke:none;stroke-width:0.0838086"
           id="path322-4" />
        <path
           inkscape:connector-curvature="0"
           d="m 125.50691,89.285471 c 0,0 0,-0.0026 0,-0.0034 0.004,0 0.008,0.0026 0.0134,0.0026 -0.005,0 -0.009,0.0026 -0.0134,0.0026"
           style="fill:#27923f;fill-opacity:1;fill-rule:nonzero;stroke:none;stroke-width:0.0838086"
           id="path324-0" />
        <path
           inkscape:connector-curvature="0"
           d="m 130.45666,58.608066 c -0.37798,-0.649525 -0.82552,-1.143979 -1.34094,-1.506881 0.18522,-0.576607 0.40647,-0.930275 0.70148,-1.026663 0.0503,-0.01588 0.10392,-0.02434 0.15924,-0.02434 0.28495,0 0.62605,0.212884 0.99816,0.606796 -0.0603,0.129064 -0.11733,0.277389 -0.17097,0.444182 -0.12571,0.399759 -0.23634,0.905987 -0.34697,1.506882"
           style="fill:#5cc133;fill-opacity:1;fill-rule:nonzero;stroke:none;stroke-width:0.0838086"
           id="path326-1" />
      </g>
      <g
         id="g1899"
         transform="matrix(0.26458333,0,0,0.26458333,192.45353,-377.2663)">
        <path
           inkscape:connector-curvature="0"
           d="m -265.51003,1737.2127 c 0,0 -15.35008,4.536 -16.04695,6.975 -0.69686,2.4422 16.04695,4.1876 16.04695,4.1876 v -11.1626"
           style="fill:#27923f;fill-opacity:1;fill-rule:nonzero;stroke:none;stroke-width:0.316757"
           id="path312-2" />
        <path
           inkscape:connector-curvature="0"
           d="m -263.7647,1753.9566 c 0,0 -8.72033,10.4656 -7.3266,12.5562 1.39374,2.0938 14.30162,-6.2781 14.30162,-6.2781 l -6.97502,-6.2781"
           style="fill:#27923f;fill-opacity:1;fill-rule:nonzero;stroke:none;stroke-width:0.316757"
           id="path314-15" />
        <path
           inkscape:connector-curvature="0"
           d="m -252.95058,1760.4026 c 0,0 -0.70004,13.7853 2.0906,15.1822 2.79382,1.3937 9.06879,-16.3954 9.06879,-16.3954 l -11.15939,1.2132"
           style="fill:#27923f;fill-opacity:1;fill-rule:nonzero;stroke:none;stroke-width:0.316757"
           id="path316-0" />
        <path
           inkscape:connector-curvature="0"
           d="m -209.00359,1721.5174 c -6.86731,37.3679 -41.49845,50.3993 -54.33664,36.7534 -0.81091,-0.8647 -1.53628,-1.8435 -2.17613,-2.93 -10.46568,-18.1407 3.15174,-19.5345 17.44385,-53.7221 11.52049,-27.5168 12.22052,-50.903 15.06501,-59.9148 0.70003,-2.1793 1.53628,-3.516 2.65127,-3.8803 7.62119,-2.4264 28.68876,43.9248 21.35264,83.6938"
           style="fill:#8ad143;fill-opacity:1;fill-rule:nonzero;stroke:none;stroke-width:0.316757"
           id="path318-9" />
        <path
           inkscape:connector-curvature="0"
           d="m -252.97591,1763.3389 c -0.0191,0 -0.0348,0 -0.0507,-0.01 -2.11277,-0.2914 -4.0925,-0.8806 -5.87902,-1.777 -1.6598,-0.8331 -3.15491,-1.9259 -4.4346,-3.2848 -0.37695,-0.4023 -0.73488,-0.8299 -1.07699,-1.2829 7.04471,-2.439 12.46443,-8.3402 16.82619,-14.4568 17.41217,-24.3935 23.71882,-56.4019 16.85468,-85.5627 -0.90592,-3.8739 -2.10327,-7.032 -3.58254,-9.5692 0.41814,-2.2712 0.83626,-4.1844 1.31139,-5.6953 0.20272,-0.6304 0.41812,-1.191 0.64619,-1.6788 9.11312,9.6357 23.174,47.9096 16.97505,81.4923 -4.73553,25.7841 -22.69571,39.9811 -37.58965,41.8215"
           style="fill:#70c72d;fill-opacity:1;fill-rule:nonzero;stroke:none;stroke-width:0.316757"
           id="path328-3" />
      </g>
      <g
         id="g2048"
         transform="matrix(0.26458333,0,0,0.26458333,140.49286,-377.29046)">
        <g
           id="g2038"
           transform="matrix(0.27527647,0.16960967,-0.16960967,0.27527647,-760.89286,1390.4283)">
          <path
             style="fill:#ccdede;fill-opacity:1;fill-rule:nonzero;stroke:none"
             d="m 1816.7998,-964.69979 c 25.9531,29.21875 46.1719,62.9375 63.5117,97.95704 3.8281,7.73046 9.5,21.58203 24.8711,14.05078 15.4688,-7.57813 9.2305,-25.39063 7.0586,-34.41016 -17.2812,-71.98047 -35.0312,-145.14067 -72.3398,-209.07027 -2.5,-4.2774 -5.211,-8.6485 -9.3321,-11.4102 -6.5273,-4.3672 -15.1992,-3.7891 -22.7695,-1.6797 -20.8867,5.7891 -66.7969,39.7422 -58.5195,64.2891 4.9492,14.6914 24.5507,30.6797 35,41.75 12.3007,13.0117 20.6328,25.12107 32.5195,38.52341"
             id="path684-3" />
          <path
             style="fill:#bacacc;fill-opacity:1;fill-rule:nonzero;stroke:none"
             d="m 1912.2021,-887.2701 c -17.2812,-71.98047 -35.0312,-145.1406 -72.3398,-209.0703 -2.5,-4.2813 -5.2109,-8.6524 -9.332,-11.4102 -4.5078,-3.0195 -10.0508,-3.6718 -15.5391,-3.0898 1.7813,0.5273 3.4883,1.289 5.0586,2.3476 4.1211,2.7618 6.832,7.1211 9.332,11.4024 37.3203,63.9375 55.0586,137.08983 72.3477,209.0703 2.1601,9.01953 8.4101,26.82813 -7.0664,34.41016 -1.25,0.61719 -2.4336,1.0664 -3.5625,1.41797 3.5117,1.9414 8.0312,2.26953 14.039,-0.66797 15.4805,-7.58203 9.2305,-25.39063 7.0625,-34.41016"
             id="path686-4" />
          <path
             style="fill:#fac7c2;fill-opacity:1;fill-rule:nonzero;stroke:none"
             d="m 1888.7412,-872.82088 c 1.1094,2.27734 2.8711,4.94922 5.3906,4.62891 2.9102,-0.35938 3.6797,-4.19922 3.4688,-7.1211 -1.0196,-14.1875 -7.7891,-27.21875 -13.7383,-40.14843 -19.6406,-42.66016 -31.5313,-88.3906 -46.9102,-132.7695 -2.4804,-7.1602 -6.0898,-15.2696 -13.4492,-17.0821 -5.4101,-1.3281 -11.0703,1.4219 -15.2031,5.1719 -8.6094,7.8086 -12.5273,19.8477 -12.5,31.4688 0.043,10.5312 2.3711,23.7304 8.5312,32.55074 5.0118,7.14844 13.1211,12.35937 18.961,18.87891 17.5976,19.66015 32.1211,41.88281 44.9805,64.87109 7.2382,12.96094 13.9687,26.19922 20.4687,39.55078"
             id="path688-2" />
          <path
             style="fill:#e3b3b3;fill-opacity:1;fill-rule:nonzero;stroke:none"
             d="m 1883.5303,-915.25057 c -19.6407,-42.66015 -31.5274,-88.40233 -46.9102,-132.78123 -2.4805,-7.1485 -6.0976,-15.2617 -13.4492,-17.0703 -5.4102,-1.3282 -11.0703,1.4218 -15.1992,5.1601 -8.6211,7.8203 -12.5391,19.8516 -12.5,31.4805 0,2.2109 0.1211,4.5312 0.3398,6.9101 1.5508,-8.4687 5.3399,-16.5117 11.6797,-22.25 4.1289,-3.75 9.7891,-6.5 15.1992,-5.1718 7.3516,1.8125 10.9727,9.9218 13.4492,17.082 15.3829,44.3711 27.2735,90.10938 46.9102,132.76954 4.582,9.96094 9.6523,19.98828 12.2031,30.55859 1.7071,-1.25 2.1875,-4.19922 2.0196,-6.54687 -1.0313,-14.19141 -7.793,-27.22266 -13.7422,-40.14063"
             id="path690-2" />
          <path
             style="fill:#ccdede;fill-opacity:1;fill-rule:nonzero;stroke:none"
             d="m 1747.3115,-1105.5631 c -8.3594,-1.8203 -17.7187,-1.4883 -24.1289,5 -7.2031,7.293 -8.5117,19.9024 -9.2031,31.3203 -2.5899,43.3125 -2.3672,90.17973 18.1523,126.54301 8.1407,14.40625 21.8711,27.27735 35.711,23.28907 39.0273,-11.24219 61.4882,-108.06248 66.3593,-153.31248 1.4805,-13.7696 0.4375,-30.5586 -9.5117,-37.9102 -6.8594,-5.0586 -15.6406,-3.6094 -23.0781,-0.3984 -9.1328,3.9297 -17.1211,8.6015 -26.9297,9.832 -9.6406,1.1992 -17.75,-2.25 -27.3711,-4.3633"
             id="path692-4" />
          <path
             style="fill:#bacacc;fill-opacity:1;fill-rule:nonzero;stroke:none"
             d="m 1824.6904,-1110.6334 c -2.8086,-2.0664 -5.9375,-3.0469 -9.1601,-3.2695 4.6093,8.4922 4.9492,20.7109 3.8203,31.1797 -4.8711,45.25 -27.3281,142.07029 -66.3594,153.32029 -3.8203,1.08984 -7.6211,0.91016 -11.3008,-0.23047 7.5508,7.94141 16.8203,12.91016 26.1524,10.22266 39.0273,-11.24219 61.4882,-108.06248 66.3593,-153.31248 1.4883,-13.7696 0.4375,-30.5586 -9.5117,-37.9102"
             id="path694-5" />
          <path
             style="fill:#d9e6e8;fill-opacity:1;fill-rule:nonzero;stroke:none"
             d="m 1732.2803,-994.0201 c -0.059,0 -0.1172,0 -0.168,0 -3.0625,-0.14062 -4.5195,-3.75 -5.1797,-6.7305 -5.9414,-26.4101 -7.4531,-53.8008 -4.4531,-80.6914 0.7031,-6.2304 3.4922,-17.1015 11.3398,-17.1015 0.5508,0 1.1211,0.062 1.7305,0.1718 9.4805,1.7696 9.1133,13.8203 7.8203,20.8086 -3.0391,16.3516 -4.418,33.0117 -4.1289,49.6328 0.1602,9.3399 0.8398,18.8594 -1.5898,27.8789 -0.75,2.80083 -2.5196,6.0313 -5.3711,6.0313"
             id="path696-1" />
          <path
             style="fill:#d9e6e8;fill-opacity:1;fill-rule:nonzero;stroke:none"
             d="m 1757.1123,-948.24275 c -2.6016,0 -4.9922,-1.3086 -6.4727,-4.75 -2.6367,-6.1875 4.1524,-13.70704 7.1524,-18.59766 11.6992,-19.01172 11.9375,-43.30079 23.1992,-62.58199 2.0781,-3.5586 5.6914,-7.2696 9.4492,-7.2696 0.7813,0 1.5821,0.1602 2.3594,0.5313 4.5117,2.0586 4.2422,8.5 3.082,13.3281 -2.7695,11.6328 -6.4023,23.0312 -10.0312,34.42188 -4.3985,13.83984 -9.0078,28.05078 -18.3086,39.21093 -2.461,2.95704 -6.6719,5.70704 -10.4297,5.70704"
             id="path698-7" />
          <path
             style="fill:#ccdede;fill-opacity:1;fill-rule:nonzero;stroke:none"
             d="m 2311.1396,-959.85994 c -25.9492,29.21875 -46.1796,62.9375 -63.5195,97.95703 -3.8203,7.73047 -9.4883,21.57031 -24.8594,14.05078 -15.4804,-7.57812 -9.2304,-25.39062 -7.0586,-34.41016 17.2774,-71.98046 35.0274,-145.14061 72.3399,-209.07031 2.5,-4.2773 5.2109,-8.6484 9.3281,-11.4102 6.5313,-4.3671 15.1992,-3.789 22.7695,-1.6796 20.8907,5.789 66.8008,39.7421 58.5235,64.289 -4.961,14.6914 -24.5508,30.6836 -35.0117,41.75002 -12.2891,13.02344 -20.6211,25.12109 -32.5118,38.52344"
             id="path700-5" />
          <path
             style="fill:#bacacc;fill-opacity:1;fill-rule:nonzero;stroke:none"
             d="m 2215.7412,-882.43025 c 17.2813,-71.98047 35.0313,-145.13285 72.3398,-209.07035 2.5,-4.2812 5.211,-8.6523 9.3321,-11.4101 4.5078,-3.0196 10.0469,-3.6719 15.539,-3.0899 -1.7812,0.5274 -3.4921,1.2891 -5.0703,2.3477 -4.1093,2.7617 -6.8203,7.1211 -9.3203,11.4023 -37.3203,63.9375 -55.0703,137.08988 -72.3515,209.07035 -2.1602,9.02734 -8.4102,26.82812 7.0703,34.41015 1.25,0.61719 2.4297,1.07031 3.5625,1.41797 -3.5235,1.94141 -8.0313,2.26953 -14.043,-0.66797 -15.4805,-7.58203 -9.2305,-25.39062 -7.0586,-34.41015"
             id="path702-7" />
          <path
             style="fill:#fac7c2;fill-opacity:1;fill-rule:nonzero;stroke:none"
             d="m 2239.2021,-867.98104 c -1.1093,2.28125 -2.8711,4.94922 -5.3906,4.62891 -2.9101,-0.35937 -3.6797,-4.19922 -3.4687,-7.12109 1.0195,-14.1875 7.789,-27.21875 13.7382,-40.13672 19.6407,-42.67188 31.5196,-88.40235 46.9102,-132.78126 2.4805,-7.1602 6.0898,-15.2695 13.4414,-17.0703 5.418,-1.3399 11.0781,1.4101 15.207,5.1601 8.6133,7.8086 12.5313,19.8516 12.5,31.4688 -0.039,10.5312 -2.3671,23.7305 -8.5273,32.55078 -5.0117,7.14844 -13.1211,12.35938 -18.9609,18.87891 -17.6094,19.66016 -32.1289,41.88281 -44.9805,64.87109 -7.2383,12.96094 -13.9688,26.19922 -20.4688,39.55078"
             id="path704-1" />
          <path
             style="fill:#e3b3b3;fill-opacity:1;fill-rule:nonzero;stroke:none"
             d="m 2244.4131,-910.41072 c 19.6367,-42.66016 31.5273,-88.40235 46.9062,-132.78128 2.4805,-7.1484 6.1016,-15.2578 13.4532,-17.0703 5.4101,-1.3281 11.0703,1.4219 15.1992,5.1602 8.6093,7.8203 12.539,19.8515 12.5,31.4804 0,2.211 -0.1211,4.5313 -0.3399,6.9102 -1.5625,-8.4688 -5.3398,-16.5117 -11.6797,-22.25 -4.1328,-3.75 -9.789,-6.5 -15.1992,-5.1719 -7.3515,1.8125 -10.9726,9.9219 -13.4531,17.082 -15.3789,44.37115 -27.2695,90.10943 -46.9102,132.76958 -4.5898,9.96875 -9.6484,19.98828 -12.1992,30.5586 -1.7109,-1.25 -2.1875,-4.19922 -2.0195,-6.54688 1.0312,-14.1914 7.7891,-27.22265 13.7422,-40.14062"
             id="path706-6" />
          <path
             style="fill:#ccdede;fill-opacity:1;fill-rule:nonzero;stroke:none"
             d="m 2380.6318,-1100.7115 c 8.3594,-1.832 17.7188,-1.5 24.1289,4.9883 7.1993,7.2929 8.5118,19.9023 9.1993,31.3203 2.5898,43.3125 2.371,90.17968 -18.1485,126.54296 -8.1406,14.41015 -21.8711,27.27734 -35.7109,23.28906 -39.0391,-11.24219 -61.4883,-108.06252 -66.3594,-153.31252 -1.4883,-13.7695 -0.4414,-30.5586 9.5117,-37.9101 6.8594,-5.0586 15.6289,-3.6094 23.0781,-0.3985 9.129,3.9297 17.1211,8.6016 26.9297,9.8321 9.6407,1.1992 17.75,-2.25 27.3711,-4.3516"
             id="path708-9" />
          <path
             style="fill:#bacacc;fill-opacity:1;fill-rule:nonzero;stroke:none"
             d="m 2303.2529,-1105.7935 c 2.8086,-2.0664 5.9375,-3.0469 9.1602,-3.2696 -4.6133,8.4922 -4.9531,20.711 -3.8203,31.1797 4.8672,45.25 27.3281,142.07033 66.3593,153.32033 3.8086,1.10157 7.6172,0.91016 11.3008,-0.23047 -7.5508,7.94141 -16.832,12.91016 -26.1523,10.22266 -39.0313,-11.24219 -61.4883,-108.06252 -66.3594,-153.31252 -1.4883,-13.7695 -0.4414,-30.5586 9.5117,-37.9101"
             id="path710-8" />
          <path
             style="fill:#d9e6e8;fill-opacity:1;fill-rule:nonzero;stroke:none"
             d="m 2395.6631,-989.18025 c -2.8633,0 -4.6211,-3.23047 -5.3711,-6.03125 -2.4297,-9.0195 -1.75,-18.5391 -1.5899,-27.8789 0.2891,-16.6211 -1.0898,-33.2813 -4.1328,-49.6328 -1.289,-6.9883 -1.6562,-19.0391 7.8203,-20.8086 0.6133,-0.1094 1.1797,-0.168 1.7305,-0.168 7.8516,0 10.6406,10.8672 11.332,17.0977 3,26.8906 1.5,54.289 -4.4414,80.69138 -0.6679,2.98047 -2.1211,6.58984 -5.1797,6.73047 -0.059,0 -0.1093,0 -0.1679,0"
             id="path712-1" />
          <path
             style="fill:#d9e6e8;fill-opacity:1;fill-rule:nonzero;stroke:none"
             d="m 2370.831,-943.40291 c -3.7617,0 -7.9687,-2.75 -10.4296,-5.70703 -9.3008,-11.15235 -13.9102,-25.3711 -18.3086,-39.21094 -3.6328,-11.39062 -7.2618,-22.78902 -10.0313,-34.42192 -1.1601,-4.8281 -1.4414,-11.2695 3.0781,-13.3398 0.7813,-0.3594 1.5821,-0.5195 2.3633,-0.5195 3.7578,0 7.3672,3.7109 9.4492,7.2695 11.2579,19.2812 11.5,43.57031 23.1993,62.58203 3,4.89063 9.789,12.41016 7.1484,18.59766 -1.4805,3.44141 -3.8672,4.75 -6.4688,4.75"
             id="path714-3" />
          <path
             style="fill:#ccdede;fill-opacity:1;fill-rule:nonzero;stroke:none"
             d="m 2282.0693,-817.99275 c -62.4492,-108.30079 -219.9883,-98.41797 -219.9883,-98.41797 0,0 -157.5507,-9.88282 -219.9882,98.41797 -45.5625,79.01171 24.9297,228.9414 24.9297,228.9414 0,0 -31.8711,-127.98047 10.707,-194.28906 67.9726,-105.82031 299.3203,-105.82031 368.7031,0 43.2305,65.9375 10.707,194.28906 10.707,194.28906 0,0 70.4922,-149.92969 24.9297,-228.9414"
             id="path716-3" />
        </g>
      </g>
      <g
         id="g1644"
         transform="matrix(0.56697819,-0.26750418,0.26750418,0.56697819,-47.748139,62.081886)">
        <rect
           style="fill:#fff1ff;fill-opacity:1;stroke:#ff00ff;stroke-width:1.565;stroke-linecap:round;stroke-linejoin:round;stroke-miterlimit:4;stroke-dasharray:none;stroke-opacity:1"
           id="rect1118"
           width="73.819672"
           height="37.999008"
           x="202.45866"
           y="105.59985"
           ry="11.570535" />
        <g
           aria-label="FC"
           id="text5202"
           style="font-size:88.6448px;font-family:'LetterOMatic!';-inkscape-font-specification:'LetterOMatic!';fill:#ff00ff;stroke-width:13.2968"
           transform="matrix(0.36664519,0,0,0.36664519,197.80285,65.180107)">
          <path
             d="m 55.373459,130.44832 q 1.038806,-6.66567 6.838808,-6.92537 8.656718,-0.34627 19.99702,1.55821 9.782092,1.99104 19.650753,3.98209 4.41492,2.25074 4.15522,5.28059 -0.34627,3.11642 -3.80895,4.58806 -11.080603,-0.60597 -20.862695,-1.73134 -2.597016,-0.2597 -4.761196,-0.2597 -5.886568,0 -8.310449,2.25075 -0.779105,0.7791 -0.952239,4.76119 -0.173135,2.07761 -0.173135,4.24179 0,6.92538 0.952239,13.33135 0.519403,4.15523 1.385075,5.19403 1.817911,0.17314 3.635822,0.17314 4.328359,0 9.176122,-0.95224 5.280598,-1.03881 12.119406,-2.68359 2.077612,-0.5194 3.549254,1.47165 1.211941,1.64477 1.55821,3.89552 0.259701,2.59702 -0.692538,4.32836 -1.21194,1.90448 -3.722389,1.73134 -5.194031,2.51045 -13.764182,3.72239 -9.176122,1.29851 -12.465675,2.59702 -0.692538,2.33731 -1.385075,4.50149 0,-0.17313 0.60597,1.21194 0.779105,1.64478 1.125374,3.28955 -0.519403,8.31045 -6.232838,10.3015 -1.038806,0.34627 -1.817911,0.34627 -4.414926,0 -5.713434,-8.39702 -2.077612,-13.50448 -2.250747,-30.47165 -0.173134,-16.27463 2.16418,-31.33732 z"
             id="path858" />
          <path
             d="m 153.97348,125.42742 q 5.5403,-0.5194 10.0418,3.20299 6.0597,5.10746 6.0597,11.25373 0,2.51045 -1.29851,4.7612 -2.16418,3.72239 -8.82985,3.63582 -1.64478,-1.03881 -2.51045,-3.72239 -0.7791,-2.68358 -1.99104,-3.28955 -3.02986,-1.38508 -6.14627,-1.38508 -5.10747,0 -10.3015,3.80896 -8.39702,6.0597 -15.06269,15.32239 -4.67463,9.17612 -4.67463,14.88956 0,2.59701 0.95224,4.50149 3.02985,6.14627 10.64777,7.79105 3.98209,0.95224 8.48358,0.95224 4.06866,0 8.65672,-0.77911 9.60896,-1.47164 16.01493,-3.80895 1.64477,-0.86568 3.37612,-0.86568 2.33731,0 4.24179,1.47165 1.90448,1.38507 1.90448,3.54925 0,3.72239 -5.10747,6.57911 -17.22687,5.10746 -29.08657,5.10746 -23.28657,0 -30.03881,-12.98508 -3.20299,-6.14627 -2.85672,-13.50448 0.69254,-15.49552 13.85075,-29.34627 6.23284,-6.57911 14.80299,-11.25374 9.08955,-4.93433 18.87164,-5.88657 z"
             id="path855" />
        </g>
      </g>
      <g
         id="g1892"
         transform="matrix(0.26458333,0,0,0.26458333,192.45353,-377.2663)">
        <path
           inkscape:connector-curvature="0"
           d="m -313.13774,1737.2127 c 0,0 15.34375,4.536 16.04379,6.975 0.70003,2.4422 -16.04379,4.1876 -16.04379,4.1876 v -11.1626"
           style="fill:#27923f;fill-opacity:1;fill-rule:nonzero;stroke:none;stroke-width:0.316757"
           id="path302-7" />
        <path
           inkscape:connector-curvature="0"
           d="m -314.88308,1753.9566 c 0,0 8.72034,10.4656 7.32344,12.5562 -1.39374,2.0938 -14.30161,-6.2781 -14.30161,-6.2781 l 6.97817,-6.2781"
           style="fill:#27923f;fill-opacity:1;fill-rule:nonzero;stroke:none;stroke-width:0.316757"
           id="path304-7" />
        <path
           inkscape:connector-curvature="0"
           d="m -325.69719,1760.4026 c 0,0 0.6937,13.7853 -2.09377,15.1822 -2.79064,1.3937 -9.07195,-16.3954 -9.07195,-16.3954 l 11.16572,1.2132"
           style="fill:#27923f;fill-opacity:1;fill-rule:nonzero;stroke:none;stroke-width:0.316757"
           id="path306-3" />
        <path
           inkscape:connector-curvature="0"
           d="m -313.15358,1755.3408 c -5.47041,9.4869 -18.69822,10.6874 -31.08978,3.9626 -11.30193,-6.1387 -21.93549,-18.8376 -25.423,-37.786 -6.75327,-36.7534 10.74444,-79.1451 19.4236,-83.4435 0.72537,-0.3326 1.36523,-0.4435 1.9544,-0.2503 1.72949,0.5575 2.73361,3.4052 3.65539,8.0362 0.30725,1.4539 0.586,3.0979 0.89325,4.9129 1.92589,11.6662 4.46628,30.0571 13.14545,50.846 14.31429,34.1876 27.9032,35.5814 17.44069,53.7221"
           style="fill:#8ad143;fill-opacity:1;fill-rule:nonzero;stroke:none;stroke-width:0.316757"
           id="path308-71" />
        <path
           inkscape:connector-curvature="0"
           d="m -328.81409,1763.5543 c -4.8654,0 -10.2186,-1.4254 -15.42927,-4.2509 4.13052,-0.8109 8.40359,-1.172 10.96932,-4.2984 2.06527,-2.5119 2.28699,-6.0279 2.00824,-9.2366 -1.14349,-12.7274 -8.67916,-23.8614 -13.03141,-35.8602 -4.63418,-12.8667 -5.58128,-27.0701 -2.65127,-40.4088 1.20052,-5.4704 3.04088,-10.8299 3.23411,-16.4112 0.0285,-0.7507 0.0285,-1.5331 -0.0253,-2.3155 1.9259,11.6662 4.46628,30.0571 13.14546,50.846 10.77926,25.7397 21.14675,32.8889 21.14358,42.5944 0,3.1834 -1.11816,6.6456 -3.70289,11.1277 -0.0887,0.1489 -0.17423,0.2946 -0.26608,0.4403 -1.58379,2.5594 -3.75359,4.4821 -6.32883,5.7745 -1.34939,0.6778 -2.80964,1.1847 -4.35541,1.5173 h -0.003 c -1.49826,0.323 -3.07572,0.4814 -4.70702,0.4814"
           style="fill:#70c72d;fill-opacity:1;fill-rule:nonzero;stroke:none;stroke-width:0.316757"
           id="path310-2" />
      </g>
      <path
         inkscape:connector-curvature="0"
         d="m 120.07861,18.117503 c 0,0 1.58064,-5.061214 2.52013,-4.876006 0.94034,0.184388 2.90733,5.906849 2.90733,5.906849 0,0 -3.90465,0.403966 -5.42746,-1.030843"
         style="fill:#27923f;fill-opacity:1;fill-rule:nonzero;stroke:none;stroke-width:0.0838086"
         id="path276-6" />
      <path
         inkscape:connector-curvature="0"
         d="m 133.56764,26.408698 c 0,0 6.64605,-1.230312 7.13801,0 0.49195,1.230313 -4.30778,6.153256 -4.30778,6.153256 l -2.83023,-6.153256"
         style="fill:#27923f;fill-opacity:1;fill-rule:nonzero;stroke:none;stroke-width:0.0838086"
         id="path224-1" />
    </g>
  </g>
</svg>
