<?xml version="1.0" encoding="UTF-8" standalone="no"?>
<!-- Created with Inkscape (http://www.inkscape.org/) -->

<svg
   width="140mm"
   height="140mm"
   viewBox="0 0 140 140"
   version="1.1"
   id="svg5"
   inkscape:version="1.1.2 (0a00cf5339, 2022-02-04)"
   sodipodi:docname="fakecamlogo.svg"
   xmlns:inkscape="http://www.inkscape.org/namespaces/inkscape"
   xmlns:sodipodi="http://sodipodi.sourceforge.net/DTD/sodipodi-0.dtd"
   xmlns="http://www.w3.org/2000/svg"
   xmlns:svg="http://www.w3.org/2000/svg">
  <sodipodi:namedview
     id="namedview7"
     pagecolor="#ffffff"
     bordercolor="#666666"
     borderopacity="1.0"
     inkscape:pageshadow="2"
     inkscape:pageopacity="0.0"
     inkscape:pagecheckerboard="0"
     inkscape:document-units="mm"
     showgrid="false"
     fit-margin-top="0"
     fit-margin-left="0"
     fit-margin-right="0"
     fit-margin-bottom="0"
     inkscape:zoom="0.75098906"
     inkscape:cx="321.57592"
     inkscape:cy="158.4577"
     inkscape:window-width="1851"
     inkscape:window-height="1015"
     inkscape:window-x="69"
     inkscape:window-y="28"
     inkscape:window-maximized="1"
     inkscape:current-layer="layer1" />
  <defs
     id="defs2" />
  <g
     inkscape:label="Ebene 1"
     inkscape:groupmode="layer"
     id="layer1"
     transform="translate(-41.938657,-90.919328)">
    <g
       aria-label="FC"
       id="text5202"
       style="font-size:88.6448px;font-family:'LetterOMatic!';-inkscape-font-specification:'LetterOMatic!';fill:#ff00ff;stroke-width:13.2968">
      <path
         d="m 55.373459,130.44832 q 1.038806,-6.66567 6.838808,-6.92537 8.656718,-0.34627 19.99702,1.55821 9.782092,1.99104 19.650753,3.98209 4.41492,2.25074 4.15522,5.28059 -0.34627,3.11642 -3.80895,4.58806 -11.080603,-0.60597 -20.862695,-1.73134 -2.597016,-0.2597 -4.761196,-0.2597 -5.886568,0 -8.310449,2.25075 -0.779105,0.7791 -0.952239,4.76119 -0.173135,2.07761 -0.173135,4.24179 0,6.92538 0.952239,13.33135 0.519403,4.15523 1.385075,5.19403 1.817911,0.17314 3.635822,0.17314 4.328359,0 9.176122,-0.95224 5.280598,-1.03881 12.119406,-2.68359 2.077612,-0.5194 3.549254,1.47165 1.211941,1.64477 1.55821,3.89552 0.259701,2.59702 -0.692538,4.32836 -1.21194,1.90448 -3.722389,1.73134 -5.194031,2.51045 -13.764182,3.72239 -9.176122,1.29851 -12.465675,2.59702 -0.692538,2.33731 -1.385075,4.50149 0,-0.17313 0.60597,1.21194 0.779105,1.64478 1.125374,3.28955 -0.519403,8.31045 -6.232838,10.3015 -1.038806,0.34627 -1.817911,0.34627 -4.414926,0 -5.713434,-8.39702 -2.077612,-13.50448 -2.250747,-30.47165 -0.173134,-16.27463 2.16418,-31.33732 z"
         id="path858" />
      <path
         d="m 153.97348,125.42742 q 5.5403,-0.5194 10.0418,3.20299 6.0597,5.10746 6.0597,11.25373 0,2.51045 -1.29851,4.7612 -2.16418,3.72239 -8.82985,3.63582 -1.64478,-1.03881 -2.51045,-3.72239 -0.7791,-2.68358 -1.99104,-3.28955 -3.02986,-1.38508 -6.14627,-1.38508 -5.10747,0 -10.3015,3.80896 -8.39702,6.0597 -15.06269,15.32239 -4.67463,9.17612 -4.67463,14.88956 0,2.59701 0.95224,4.50149 3.02985,6.14627 10.64777,7.79105 3.98209,0.95224 8.48358,0.95224 4.06866,0 8.65672,-0.77911 9.60896,-1.47164 16.01493,-3.80895 1.64477,-0.86568 3.37612,-0.86568 2.33731,0 4.24179,1.47165 1.90448,1.38507 1.90448,3.54925 0,3.72239 -5.10747,6.57911 -17.22687,5.10746 -29.08657,5.10746 -23.28657,0 -30.03881,-12.98508 -3.20299,-6.14627 -2.85672,-13.50448 0.69254,-15.49552 13.85075,-29.34627 6.23284,-6.57911 14.80299,-11.25374 9.08955,-4.93433 18.87164,-5.88657 z"
         id="path855" />
    </g>
  </g>
</svg>
