<?xml version="1.0" encoding="UTF-8" standalone="no"?>
<svg
   width="48px"
   height="48px"
   version="1.1"
   id="svg95"
   sodipodi:docname="Gnome-vector-cleanup.svg"
   inkscape:version="1.2.1 (9c6d41e410, 2022-07-14)"
   xmlns:inkscape="http://www.inkscape.org/namespaces/inkscape"
   xmlns:sodipodi="http://sodipodi.sourceforge.net/DTD/sodipodi-0.dtd"
   xmlns="http://www.w3.org/2000/svg"
   xmlns:svg="http://www.w3.org/2000/svg">
  <sodipodi:namedview
     id="namedview97"
     pagecolor="#ffffff"
     bordercolor="#666666"
     borderopacity="1.0"
     inkscape:showpageshadow="2"
     inkscape:pageopacity="0.0"
     inkscape:pagecheckerboard="0"
     inkscape:deskcolor="#d1d1d1"
     showgrid="false"
     inkscape:zoom="6.4449837"
     inkscape:cx="22.187799"
     inkscape:cy="5.7408989"
     inkscape:window-width="1628"
     inkscape:window-height="865"
     inkscape:window-x="176"
     inkscape:window-y="98"
     inkscape:window-maximized="0"
     inkscape:current-layer="g668" />
  <defs
     id="defs37">
    <linearGradient
       id="a"
       gradientUnits="userSpaceOnUse"
       x1="26"
       x2="24"
       y1="16"
       y2="8">
      <stop
         offset="0"
         stop-color="#c17d11"
         id="stop2" />
      <stop
         offset="1"
         stop-color="#e9b96e"
         id="stop4" />
    </linearGradient>
    <linearGradient
       id="b"
       gradientUnits="userSpaceOnUse"
       x1="18.93"
       x2="28.21"
       y1="25.06"
       y2="30.74">
      <stop
         offset="0"
         stop-color="#fdef72"
         id="stop7" />
      <stop
         offset="1"
         stop-color="#e2cb0b"
         id="stop9" />
    </linearGradient>
    <linearGradient
       id="c"
       gradientTransform="matrix(.9768 0 0 1 -1.38 0)"
       gradientUnits="userSpaceOnUse"
       x1="27.65"
       x2="21.59"
       y1="23.15"
       y2="20.62">
      <stop
         offset="0"
         stop-color="#ad7fa8"
         id="stop12" />
      <stop
         offset="1"
         stop-color="#dac6d8"
         id="stop14" />
    </linearGradient>
    <linearGradient
       id="d"
       gradientUnits="userSpaceOnUse"
       x1="28"
       x2="33.45"
       y1="8"
       y2="16.69">
      <stop
         offset="0"
         stop-color="#fff"
         id="stop17" />
      <stop
         offset="1"
         stop-color="#fff"
         stop-opacity=".13"
         id="stop19" />
    </linearGradient>
    <linearGradient
       id="e"
       gradientUnits="userSpaceOnUse"
       x1="20.32"
       x2="16.99"
       y1="41.96"
       y2="37.03">
      <stop
         offset="0"
         stop-color="#fff"
         id="stop22" />
      <stop
         offset="1"
         stop-color="#fff"
         stop-opacity=".69"
         id="stop24" />
    </linearGradient>
    <linearGradient
       id="f"
       gradientUnits="userSpaceOnUse"
       x1="25.35"
       x2="21.49"
       y1="36.22"
       y2="34.73">
      <stop
         offset="0"
         stop-color="#c4a000"
         id="stop27" />
      <stop
         offset="1"
         stop-color="#c4a000"
         stop-opacity="0"
         id="stop29" />
    </linearGradient>
    <radialGradient
       id="g"
       cx="38"
       cy="69"
       fx="28.6"
       gradientTransform="matrix(.7987 0 0 .2396 1.68 13.78)"
       gradientUnits="userSpaceOnUse"
       r="20">
      <stop
         offset="0"
         id="stop32" />
      <stop
         offset="1"
         stop-opacity="0"
         id="stop34" />
    </radialGradient>
  </defs>
  <g
     id="g668"
     transform="matrix(0.0737096,0,0,0.0737096,5.8692919,0.24306978)">
    <g
       id="g864"
       transform="translate(-7.8474056,72.368834)">
      <g
         id="g474">
	<path
   style="fill:#57c927"
   d="m 115.428,155.433 v 217.664 c 0,17 10.208,30.336 27.704,30.336 h 22.84 c -0.784,0 -2.544,5.768 -2.544,8.6 v 61.648 c 0,16.112 15.448,29.176 32,29.176 16.56,0 32,-13.064 32,-29.176 v -61.648 c 0,-2.832 -3.088,-8.6 -3.848,-8.6 h 55.712 c -0.76,0 -3.864,5.768 -3.864,8.6 v 61.648 c 0,16.112 15.416,29.176 31.968,29.176 16.592,0 32.032,-13.064 32.032,-29.176 v -61.648 c 0,-2.832 -1.752,-8.6 -2.536,-8.6 h 22.872 c 17.496,0 27.664,-13.336 27.664,-30.336 V 155.433 H 113.596 Z"
   id="path468" />

	<path
   style="fill:#57c927"
   d="m 59.428,158.977 c -16.568,0 -32,13.072 -32,29.176 v 124.92 c 0,16.112 15.432,29.176 32,29.176 16.56,0 32,-13.064 32,-29.176 V 188.161 c 0,-16.112 -15.44,-29.184 -32,-29.184 z"
   id="path470" />

	<path
   style="fill:#57c927"
   d="m 320.3,42.057 5.584,-8.192 5.592,-8.096 12.456,-18.2 c 1.56,-2.256 0.912,-5.264 -1.384,-6.744 -2.272,-1.512 -5.416,-0.88 -6.904,1.36 l -19.016,27.704 -5.72,8.344 c -18.072,-6.832 -38.208,-10.64 -59.48,-10.64 -21.224,0 -41.4,3.816 -59.472,10.64 l -5.688,-8.336 -5.624,-8.184 -13.36,-19.512 c -1.544,-2.248 -4.648,-2.84 -6.952,-1.36 -2.28,1.488 -2.912,4.496 -1.392,6.744 l 12.448,18.208 5.592,8.104 5.616,8.168 c -42.432,19.24 -71.144,57.368 -71.144,97.368 h 279.96 c 0,-40 -28.704,-78.128 -71.112,-97.376 z m -128.864,58.536 c -8.312,0 -15.008,-6.536 -15.008,-14.608 0,-8.072 6.696,-14.576 15.008,-14.576 8.288,0 15,6.504 15,14.576 0,8.072 -6.704,14.608 -15,14.608 z m 120,0 c -8.304,0 -15.016,-6.536 -15.016,-14.608 0,-8.072 6.712,-14.576 15.016,-14.576 8.288,0 15,6.504 15,14.576 0,8.072 -6.712,14.608 -15,14.608 z"
   id="path472" />

</g>
      <path
         style="fill:#1cb71c"
         d="m 60.852,224.193 c -12.472,0 -25.424,-11.768 -33.424,-30.432 v 119.32 c 0,16.112 15.432,29.176 32,29.176 16.56,0 32,-13.064 32,-29.176 V 199.985 c -8,14.992 -19.568,24.208 -30.576,24.208 z"
         id="path476" />
      <path
         style="fill:#57c927"
         d="m 443.428,158.977 c -16.568,0 -32,13.072 -32,29.176 v 124.92 c 0,16.112 15.432,29.176 32,29.176 16.56,0 32,-13.064 32,-29.176 V 188.161 c 0,-16.112 -15.44,-29.184 -32,-29.184 z"
         id="path478" />
      <g
         id="g486">
	<path
   style="fill:#1cb71c"
   d="m 444.852,224.193 c -12.472,0 -25.424,-11.768 -33.424,-30.432 v 119.32 c 0,16.112 15.432,29.176 32,29.176 16.56,0 32,-13.064 32,-29.176 V 199.985 c -8,14.992 -19.568,24.208 -30.576,24.208 z"
   id="path480" />

	<path
   style="fill:#1cb71c"
   d="m 251.428,179.337 c -63.28,0 -120,-7.32 -136,-17.712 v 211.472 c 0,17 10.208,30.336 27.704,30.336 h 22.84 c -0.784,0 -2.544,5.768 -2.544,8.6 v 61.648 c 0,16.112 15.448,29.176 32,29.176 16.56,0 32,-13.064 32,-29.176 v -61.648 c 0,-2.832 -3.088,-8.6 -3.848,-8.6 h 55.712 c -0.76,0 -3.864,5.768 -3.864,8.6 v 61.648 c 0,16.112 15.416,29.176 31.968,29.176 16.592,0 32.032,-13.064 32.032,-29.176 v -61.648 c 0,-2.832 -1.752,-8.6 -2.536,-8.6 h 22.872 c 17.496,0 27.664,-13.336 27.664,-30.336 v -211.48 c -16,10.392 -72.712,17.72 -136,17.72 z"
   id="path482" />

	<path
   style="fill:#1cb71c"
   d="m 326.436,85.977 c 0,8.072 -6.712,14.608 -15,14.608 -8.304,0 -15.016,-6.536 -15.016,-14.608 0,-4.376 2.008,-8.24 5.136,-10.912 -15.816,-2.64 -32.64,-4.088 -50.128,-4.088 -17.488,0 -34.304,1.448 -50.128,4.088 3.136,2.664 5.144,6.536 5.144,10.912 0,8.072 -6.712,14.608 -15,14.608 -8.312,0 -15.008,-6.536 -15.008,-14.608 0,-2.064 0.456,-4.024 1.248,-5.808 -23.984,6.304 -44.592,15.504 -60.144,26.808 -3.92,10.296 -6.088,24.456 -6.088,32.456 h 279.96 c 0,-8 -2.168,-22.152 -6.08,-32.44 -15.544,-11.32 -36.16,-20.536 -60.128,-26.84 0.784,1.784 1.232,3.768 1.232,5.824 z"
   id="path484" />

</g>
      <path
         style="fill:#049e42"
         d="m 251.428,262.817 c -53.896,0 -104,-10.632 -136,-28.056 v 138.336 c 0,17 10.208,30.336 27.704,30.336 h 22.84 c -0.784,0 -2.544,5.768 -2.544,8.6 v 61.648 c 0,16.112 15.448,29.176 32,29.176 16.56,0 32,-13.064 32,-29.176 v -61.648 c 0,-2.832 -3.088,-8.6 -3.848,-8.6 h 55.712 c -0.76,0 -3.864,5.768 -3.864,8.6 v 61.648 c 0,16.112 15.416,29.176 31.968,29.176 16.592,0 32.032,-13.064 32.032,-29.176 v -61.648 c 0,-2.832 -1.752,-8.6 -2.536,-8.6 h 22.872 c 17.496,0 27.664,-13.336 27.664,-30.336 V 234.761 c -32,17.432 -82.104,28.056 -136,28.056 z"
         id="path488" />
    </g>
    <g
       id="g490">
</g>
    <g
       id="g492">
</g>
    <g
       id="g494">
</g>
    <g
       id="g496">
</g>
    <g
       id="g498">
</g>
    <g
       id="g500">
</g>
    <g
       id="g502">
</g>
    <g
       id="g504">
</g>
    <g
       id="g506">
</g>
    <g
       id="g508">
</g>
    <g
       id="g510">
</g>
    <g
       id="g512">
</g>
    <g
       id="g514">
</g>
    <g
       id="g516">
</g>
    <g
       id="g518">
</g>
  </g>
  <ellipse
     cx="32.03"
     cy="30.31"
     fill="url(#g)"
     opacity=".25"
     rx="15.97"
     ry="4.79"
     id="ellipse55" />
  <g
     transform="matrix(.78 .128 -.128 .78 17.8 -4.8)"
     id="g93">
    <path
       d="m34.59 2.47c-8.2.11-9.4 16.25-11.75 19.16l4 1.44c2.63-4.37 15.76-18.91 8.56-20.56-.28-.03-.55-.03-.81-.03zm-1.03 2.06c.19-.02.37.01.53.09.65.35.72 1.5.16 2.53s-1.57 1.6-2.22 1.25-.72-1.5-.16-2.53c.43-.78 1.11-1.29 1.69-1.34z"
       fill="url(#a)"
       stroke="#630"
       id="path57" />
    <path
       d="m36.61 3.47c-1.72.02-3.03.84-4.21 2.27s-2.14 3.45-2.93 5.6-1.41 4.42-1.99 6.36c-.4 1.35-.78 2.42-1.23 3.36l2.21.79c1.62-2.5 5-6.59 7.49-10.62 1.33-2.15 2.31-4.21 2.53-5.59.11-.69.03-1.17-.14-1.46s-.46-.52-1.13-.69c-.19-.02-.39-.02-.6-.02z"
       fill="none"
       opacity=".27"
       stroke="url(#d)"
       transform="matrix(1 0 0 1 -2 0)"
       id="path59" />
    <g
       id="g69">
      <path
         d="m19.5 21.5c-5.19 1.55-8.79 9.7-14.13 13.95.67.7 1.45 1.44 2.13 2.05l4.06-3.53-3.07 4.53c2.21 1.79 4.51 3.01 6.01 3.51l2.75-3.66-1.75 4.16c1.45.59 4.99 1.48 7 1.5l2-3.4-.51 3.47c.83.16 2.44.37 3.51.41 3.36-5.5 4-14.47 2-18.47-.5-2 1.5-4.5 3-5.5-2.5-2-8.21-4.3-12-4.01.71 1.99-.54 3.73-1 4.99z"
         fill="url(#b)"
         stroke="#950"
         stroke-miterlimit="20"
         id="path61" />
      <g
         fill="#c4a000"
         id="g67">
        <path
           d="m9 38.5c4.82-5.01 4.47-7.2 10.12-11.53-2.98 4.83-3.47 7.34-7.12 13.53z"
           opacity=".27"
           id="path63" />
        <path
           d="m16.15 42.2 4.35-9.84c1.67-2.98 2.86-5.97 4.53-8.35-1.6 5.42-4.89 12.12-7.53 18.62z"
           opacity=".42"
           id="path65" />
      </g>
    </g>
    <path
       d="m21.62 17.5c.1 1.92-.92 3.53-1.22 4.34-.1.28-.34.5-.63.59-5.45 2.24-7.63 8.57-12.99 13.09.2.2.49.42.69.61l9.02-7.63-6.58 9.81c1.27 1.03 2.72 1.89 4.23 2.49l6.99-9.3-4.28 10.41c1.6.53 3.1.83 4.95 1.09l4.62-7.69-1.37 7.91 1.88.23c1.43-2.54 2.13-5.67 2.53-8.79.42-3.32-.01-6.54-.84-8.22-.03-.06-.05-.12-.06-.19-.35-1.39.17-2.75.88-3.88.43-.68.93-1.29 1.47-1.8-1.17-.78-2.59-1.46-4.37-2.1-1.76-.64-3.5-.95-4.91-.97z"
       fill="none"
       opacity=".5"
       stroke="url(#e)"
       id="path71" />
    <g
       id="g91">
      <path
         d="m18.97 43c2.18-5.75 6.4-10.07 8.02-15.94.05 3.66.25 10.2-1.89 16.72-.32 0-.17-.11-.47-.12l.8-5.73-3.28 5.55c-2.19-.16-1.3.03-3.17-.49z"
         fill="url(#f)"
         opacity=".25"
         id="path73" />
      <g
         fill="#c4a000"
         id="g85">
        <path
           d="m21 22.61c-1.25.62-2.06 1.53-2.98 2.36 1.23-.71 2.38-1.45 4-1.99z"
           opacity=".5"
           id="path75" />
        <path
           d="m23.01 23.06-1.02 1.99 2.98-1.59z"
           opacity=".5"
           id="path77" />
        <path
           d="m22.94 17.96-.9 1.71 1.57.5z"
           opacity=".5"
           id="path79" />
        <path
           d="m29.92 19.89-2.46 1.84 1.57.5z"
           opacity=".5"
           id="path81" />
        <path
           d="m26.01 17.94-1.51 2.53 1.57.5z"
           opacity=".5"
           id="path83" />
      </g>
      <path
         d="m18.97 22.02c-.57-2.97 9.33 2.15 11.04 2.99-.01 1.08 0 2-.98 2-2.57-1.39-6.54-3.61-10.06-4.99z"
         opacity=".2"
         id="path87" />
      <path
         d="m18.65 21.5c-.49-1 0-2 .98-2 3.99.98 7.33 2.21 10.75 4 .49 1 0 2-.98 2-3.53-1.86-6.87-3.08-10.75-4z"
         fill="url(#c)"
         stroke="#536"
         stroke-linejoin="round"
         id="path89" />
    </g>
  </g>
</svg>
