<?xml version="1.0" encoding="UTF-8" standalone="no"?>
<!-- Created with Inkscape (http://www.inkscape.org/) -->

<svg
   width="123.93635mm"
   height="127.19969mm"
   viewBox="0 0 123.93635 127.19969"
   version="1.1"
   id="svg8"
   inkscape:version="1.1.2 (0a00cf5339, 2022-02-04)"
   sodipodi:docname="helpdesk.svg"
   xmlns:inkscape="http://www.inkscape.org/namespaces/inkscape"
   xmlns:sodipodi="http://sodipodi.sourceforge.net/DTD/sodipodi-0.dtd"
   xmlns="http://www.w3.org/2000/svg"
   xmlns:svg="http://www.w3.org/2000/svg"
   xmlns:rdf="http://www.w3.org/1999/02/22-rdf-syntax-ns#"
   xmlns:cc="http://creativecommons.org/ns#"
   xmlns:dc="http://purl.org/dc/elements/1.1/">
  <defs
     id="defs2">
    <clipPath
       clipPathUnits="userSpaceOnUse"
       id="clipPath4820">
      <g
         clip-path="url(#clipPath4758)"
         id="g4826"
         style="fill:none;stroke:#000000;stroke-opacity:1"
         transform="translate(1.1666667e-6)">
        <g
           id="g4824"
           inkscape:label="Clip"
           style="fill:none;stroke:#000000;stroke-opacity:1">
          <rect
             style="opacity:1;fill:none;fill-opacity:1;fill-rule:nonzero;stroke:#000000;stroke-width:0.265;stroke-miterlimit:4;stroke-dasharray:none;stroke-dashoffset:0;stroke-opacity:1"
             id="rect4822"
             width="33.191963"
             height="33.30891"
             x="130.03528"
             y="141.07959" />
        </g>
      </g>
    </clipPath>
    <clipPath
       clipPathUnits="userSpaceOnUse"
       id="clipPath4812">
      <g
         clip-path="url(#clipPath4758)"
         id="g4818"
         style="fill:none;stroke:#000000;stroke-opacity:1">
        <g
           id="g4816"
           inkscape:label="Clip"
           style="fill:none;stroke:#000000;stroke-opacity:1">
          <rect
             style="opacity:1;fill:none;fill-opacity:1;fill-rule:nonzero;stroke:#000000;stroke-width:0.265;stroke-miterlimit:4;stroke-dasharray:none;stroke-dashoffset:0;stroke-opacity:1"
             id="rect4814"
             width="33.191963"
             height="33.30891"
             x="130.03528"
             y="141.07959" />
        </g>
      </g>
    </clipPath>
  </defs>
  <sodipodi:namedview
     id="base"
     pagecolor="#ffffff"
     bordercolor="#666666"
     borderopacity="1.0"
     inkscape:pageopacity="0.0"
     inkscape:pageshadow="2"
     inkscape:zoom="0.49497474"
     inkscape:cx="154.55334"
     inkscape:cy="347.49248"
     inkscape:document-units="mm"
     inkscape:current-layer="layer1"
     showgrid="false"
     fit-margin-top="0"
     fit-margin-left="0"
     fit-margin-right="0"
     fit-margin-bottom="0"
     inkscape:window-width="1851"
     inkscape:window-height="1015"
     inkscape:window-x="69"
     inkscape:window-y="28"
     inkscape:window-maximized="1"
     inkscape:pagecheckerboard="0" />
  <metadata
     id="metadata5">
    <rdf:RDF>
      <cc:Work
         rdf:about="">
        <dc:format>image/svg+xml</dc:format>
        <dc:type
           rdf:resource="http://purl.org/dc/dcmitype/StillImage" />
      </cc:Work>
    </rdf:RDF>
  </metadata>
  <g
     inkscape:label="Ebene 1"
     inkscape:groupmode="layer"
     id="layer1"
     transform="translate(-64.173668,-22.241213)">
    <rect
       style="fill:#ffffff;stroke:#e6e6e6;stroke-width:8.17372;stroke-linecap:round;stroke-linejoin:round"
       id="rect860"
       width="115.76263"
       height="119.02597"
       x="68.260529"
       y="26.328074"
       ry="24.029255" />
    <rect
       style="opacity:1;fill:none;fill-opacity:1;stroke:none;stroke-width:0.765;stroke-linecap:round;stroke-linejoin:round;stroke-miterlimit:4;stroke-dasharray:none;stroke-dashoffset:0;stroke-opacity:1"
       id="rect826"
       width="230.65364"
       height="146.73096"
       x="-52.873947"
       y="16.566895"
       ry="0.37370545" />
    <g
       id="g834"
       transform="matrix(1.6304738,0,0,1.6304738,23.804637,-51.26002)">
      <path
         sodipodi:nodetypes="ccccsccccssccsscccscssccssccscccssssssscsscsscsccsccsccccsscsccccsccccsscccsccsssccssscssccccsscscscccccccccscssccscsc"
         inkscape:connector-curvature="0"
         id="path826"
         d="m 42.540358,115.36215 c -0.908518,-0.16949 -2.300041,-1.2677 -2.778403,-2.19275 -0.573273,-1.10858 -0.569468,-11.64491 0.005,-13.900644 0.653907,-2.56758 1.949522,-4.84877 3.83172,-6.74652 2.22386,-2.24224 4.600451,-3.47655 8.598014,-4.46548 1.692394,-0.41867 3.128717,-0.81285 3.191828,-0.87597 0.06311,-0.0631 -0.393679,-0.66853 -1.015093,-1.34537 -0.621411,-0.67685 -1.353846,-1.60985 -1.627635,-2.07333 -0.488534,-0.82703 -0.488418,-0.83861 0.0062,-0.62289 0.277193,0.12089 1.229484,0.46813 2.116203,0.77163 0.88672,0.3035 2.050892,0.93804 2.587046,1.41009 1.810965,1.59444 2.980714,2.04304 5.325737,2.04245 1.776498,-5.3e-4 2.331908,-0.11331 3.45598,-0.70227 2.950165,-1.54575 6.107361,-6.06913 7.153201,-10.24855 0.504129,-2.01462 0.318003,-3.3112 -0.938538,-6.53799 -0.81022,-2.08064 -2.941595,-5.49087 -3.748876,-5.99825 -0.335849,-0.21109 -0.66339,-0.0516 -1.51824,0.73936 -1.515375,1.40208 -2.713654,2.17959 -4.901848,3.18061 -2.456593,1.12381 -4.720413,1.66134 -7.933341,1.88375 l -2.610827,0.18073 0.131755,3.06761 c 0.137586,3.20336 0.831128,5.86248 2.038588,7.81619 0.586841,0.94953 2.160143,1.53399 5.040204,1.87237 1.260071,0.14804 1.526194,0.0981 1.945667,-0.36546 1.407176,-1.55491 4.608258,-0.5216 4.197252,1.35488 -0.126571,0.57787 -1.383633,1.25317 -2.332755,1.25317 -0.390231,0 -1.080754,-0.22319 -1.534493,-0.49599 -0.465799,-0.28005 -1.628188,-0.57387 -2.669826,-0.67486 -1.014666,-0.0984 -2.681541,-0.48247 -3.704167,-0.85353 -1.061402,-0.38513 -2.597359,-0.71082 -3.579111,-0.75894 -2.011987,-0.0986 -3.293436,-0.58507 -4.285295,-1.62677 -2.438395,-2.56095 -2.752053,-8.28526 -0.580165,-10.58813 0.785595,-0.83299 0.896699,-1.12363 0.896699,-2.34572 0,-5.42157 2.655988,-10.47799 6.727347,-12.80738 3.307871,-1.89257 9.505318,-2.55391 13.777862,-1.47025 6.569113,1.66614 10.689726,6.91345 11.170799,14.22522 0.147325,2.23917 0.133681,2.31511 -0.41601,2.31511 -0.497969,0 -0.56833,-0.14879 -0.56833,-1.20178 0,-2.09682 -0.776333,-5.20983 -1.848901,-7.41391 -2.396529,-4.92475 -6.698273,-7.26426 -13.340818,-7.2554 -4.972212,0.007 -8.180869,1.15197 -10.705468,3.82136 -2.177476,2.30236 -3.285525,5.01931 -3.622511,8.88245 -0.176962,2.02864 -0.157811,2.15591 0.310914,2.06641 0.337738,-0.0645 0.574487,-0.4372 0.731076,-1.1509 1.210307,-5.51635 2.98809,-8.11563 7.380372,-10.79078 3.644038,-2.21943 7.567915,-2.62938 10.664773,-1.11423 0.834109,0.40809 2.266193,1.46836 3.182408,2.35615 0.916215,0.88779 2.205326,2.07412 2.864689,2.63629 0.694132,0.59182 1.507188,1.65001 1.931257,2.51355 0.655968,1.33574 0.742215,1.83169 0.826291,4.7515 0.0726,2.52131 0.179745,3.29304 0.472806,3.4055 1.180099,0.45285 1.575159,4.28581 0.651375,6.31979 -0.485887,1.06981 -1.66238,2.22816 -2.263066,2.22816 -0.171704,0 -0.523775,0.44649 -0.782381,0.99219 -0.831768,1.75517 -2.220855,3.87165 -3.324985,5.06609 -0.591531,0.63991 -1.022797,1.2162 -0.958368,1.28063 0.06443,0.0644 1.525238,0.47288 3.246236,0.90767 5.148737,1.30076 7.979064,3.12589 10.354033,6.67676 2.076109,3.10404 2.432352,4.85818 2.432352,11.976914 0,5.61022 -0.02246,5.86316 -0.596213,6.71455 -0.327916,0.48659 -1.012526,1.12928 -1.521354,1.42819 -0.909764,0.53444 -1.257194,0.54402 -20.901184,0.57679 -10.986824,0.0183 -20.273699,-0.0222 -20.637501,-0.0901 z m 5.875388,-4.37502 c 0.06954,-1.71593 0.133546,-1.91823 0.606904,-1.91823 0.473358,0 0.537366,0.2023 0.606904,1.91823 l 0.07774,1.91823 h 3.682378 3.682376 l 0.261549,-0.99219 c 0.143851,-0.5457 0.927351,-3.67109 1.741109,-6.94531 0.81376,-3.27422 1.542084,-6.161394 1.618499,-6.415944 0.09781,-0.32583 -0.06969,-0.54214 -0.565891,-0.73079 -0.387655,-0.14739 -0.767374,-0.50717 -0.843823,-0.79951 -0.0815,-0.31165 -1.834322,-1.69193 -4.237289,-3.3367 l -4.09829,-2.80517 -1.09492,0.35822 c -2.884413,0.94366 -6.085991,4.12481 -7.340936,7.2941 -0.558604,1.410719 -0.618591,2.036844 -0.709562,7.406234 -0.12409,7.32398 -0.317175,6.96706 3.768984,6.96706 h 2.766534 z m 27.462113,-0.0661 c 0,-1.80798 0.04704,-1.98437 0.529167,-1.98437 0.482129,0 0.529167,0.17639 0.529167,1.98437 v 1.98438 h 2.910416 c 4.246454,0 4.038074,0.36384 3.914648,-6.83512 -0.08646,-5.04274 -0.165928,-5.9146 -0.660384,-7.245014 -0.704836,-1.89648 -2.431772,-4.381 -3.82129,-5.49765 -1.143201,-0.9187 -3.841435,-2.3738 -4.411972,-2.37929 -0.536133,-0.005 -8.319471,5.44846 -8.857832,6.20648 -0.261456,0.36814 -0.648409,0.66934 -0.859896,0.66934 -0.211489,0 -0.384524,0.12245 -0.384524,0.27212 0,0.26867 3.34745,13.837854 3.571748,14.478404 0.08522,0.24336 1.09646,0.33073 3.828283,0.33073 h 3.712469 z M 60.031021,92.598586 c 0.490686,-1.27331 0.893445,-2.42436 0.895019,-2.55788 0.0016,-0.13353 -0.622601,-0.41678 -1.387057,-0.62944 -1.325584,-0.36876 -1.518915,-0.35247 -4.176964,0.35206 -1.700958,0.45085 -2.691979,0.83379 -2.543088,0.98268 0.346602,0.34661 5.959653,4.13127 6.156617,4.15118 0.08982,0.009 0.564785,-1.0253 1.055473,-2.2986 z m 9.586466,0.28941 c 1.624195,-1.11414 3.050537,-2.11051 3.169647,-2.21418 0.119113,-0.10366 -1.094279,-0.51368 -2.696424,-0.91115 -2.855225,-0.70834 -2.939534,-0.71386 -4.251463,-0.2781 -0.736158,0.24451 -1.338472,0.4937 -1.338472,0.55377 0,0.2724 1.921886,4.87535 2.035625,4.87535 0.0704,0 1.456891,-0.91156 3.081087,-2.02569 z m -6.032792,-1.87691 c -0.356954,-1.44533 -1.194199,-1.48871 -1.682768,-0.0872 l -0.284041,0.8148 h 1.073253 c 1.037995,0 1.067348,-0.0239 0.893556,-0.7276 z"
         style="fill:#000000;stroke-width:0.264583" />
      <path
         transform="scale(0.26458333)"
         inkscape:connector-curvature="0"
         id="path1469"
         d="m 188.45986,344.62976 c -14.19804,6.10268 -25.48337,18.80569 -30.06781,33.42567 0.41509,15.19912 -1.82339,30.67238 0.59779,45.72925 2.30683,4.99288 9.37853,2.35783 13.65068,3.31267 5.70819,0.57627 11.88519,1.36472 10.5772,-6.2208 0.97585,-2.21144 -0.77443,-8.02795 2.62008,-8.11871 2.21915,4.19292 0.84462,9.57856 2.05977,13.98825 9.27738,0.0836 18.68846,0.58344 27.88376,0.41432 4.72862,-18.47127 9.45765,-37.01925 13.86789,-55.52288 -11.19587,-11.11567 -24.46114,-19.8787 -37.52361,-28.53878 -1.22192,0.51034 -2.44383,1.02067 -3.66575,1.53101 z"
         style="opacity:1;fill:#008551;fill-opacity:1;stroke:#008551;stroke-width:2.92069;stroke-linecap:round;stroke-linejoin:round;stroke-miterlimit:4;stroke-dasharray:none;stroke-dashoffset:0;stroke-opacity:1" />
      <path
         transform="scale(0.26458333)"
         inkscape:connector-curvature="0"
         id="path1471"
         d="m 283.25242,344.05169 c -14.24612,6.28222 -25.74239,17.50005 -38.32858,26.23042 2.8815,16.34963 7.61565,32.66277 11.64042,48.88389 0.72741,3.7572 2.3681,8.8568 7.34971,7.59805 7.52804,0.25089 15.27948,0.62869 22.67669,0.28785 0.7148,-4.67012 -1.44617,-11.20602 2.1367,-14.91948 2.90262,2.1462 0.99964,7.88181 1.87769,11.13797 -0.90685,7.02532 9.69854,1.95341 13.94343,3.4757 4.48925,0.26253 11.53128,0.10907 11.81405,-5.92676 0.85563,-15.22354 1.22443,-30.84623 -2.0499,-45.82778 -4.16286,-14.37455 -16.36372,-26.19859 -30.37363,-30.9517 -0.22789,-0.0137 -0.46025,-0.0421 -0.68658,0.0118 z"
         style="opacity:1;fill:#008551;fill-opacity:1;stroke:#008551;stroke-width:2.92069;stroke-linecap:round;stroke-linejoin:round;stroke-miterlimit:4;stroke-dasharray:none;stroke-dashoffset:0;stroke-opacity:1" />
      <path
         transform="scale(0.26458333)"
         inkscape:connector-curvature="0"
         id="path1473"
         d="m 253.70151,337.17989 c -3.08373,0.62076 -7.77218,0.78366 -9.55107,3.51975 1.75408,6.07752 3.80814,12.84991 7.52682,17.85129 7.63208,-5.13105 16.44088,-9.44184 22.61005,-16.29266 -5.87378,-2.86871 -13.23793,-4.18533 -19.91697,-5.08628 z"
         style="opacity:1;fill:#008551;fill-opacity:1;stroke:#008551;stroke-width:2.92069;stroke-linecap:round;stroke-linejoin:round;stroke-miterlimit:4;stroke-dasharray:none;stroke-dashoffset:0;stroke-opacity:1" />
      <path
         transform="scale(0.26458333)"
         inkscape:connector-curvature="0"
         id="path1475"
         d="m 218.73879,337.03586 c -6.03646,1.11698 -13.04808,2.06023 -17.90259,5.89519 6.16606,6.45279 14.51422,11.11576 22.19179,15.60804 3.14386,-5.52992 5.83498,-11.9102 6.90534,-18.18275 -2.54877,-2.98976 -7.54935,-3.20816 -11.19454,-3.32048 z"
         style="opacity:1;fill:#008551;fill-opacity:1;stroke:#008551;stroke-width:2.92069;stroke-linecap:round;stroke-linejoin:round;stroke-miterlimit:4;stroke-dasharray:none;stroke-dashoffset:0;stroke-opacity:1" />
      <path
         transform="scale(0.26458333)"
         inkscape:connector-curvature="0"
         id="path1477"
         d="m 237.13222,339.82143 c -2.91903,0.45499 -3.33819,4.20011 -4.28817,6.4183 0.14456,1.49001 3.25994,0.39037 4.67386,0.69844 1.23197,0.0631 3.67816,-0.0186 3.19341,-1.89074 -0.51663,-1.87821 -1.06579,-5.15657 -3.5791,-5.226 z"
         style="opacity:1;fill:#008551;fill-opacity:1;stroke:#008551;stroke-width:1.03262;stroke-linecap:round;stroke-linejoin:round;stroke-miterlimit:4;stroke-dasharray:none;stroke-dashoffset:0;stroke-opacity:1" />
    </g>
  </g>
</svg>
