<?xml version="1.0" encoding="UTF-8" standalone="no"?>
<!-- Svg Vector Icons : http://www.onlinewebfonts.com/icon -->

<svg
   version="1.1"
   x="0px"
   y="0px"
   viewBox="0 0 1000 1000"
   enable-background="new 0 0 1000 1000"
   xml:space="preserve"
   id="svg8"
   sodipodi:docname="updateicoshutdown.svg"
   inkscape:version="1.1.2 (0a00cf5339, 2022-02-04)"
   xmlns:inkscape="http://www.inkscape.org/namespaces/inkscape"
   xmlns:sodipodi="http://sodipodi.sourceforge.net/DTD/sodipodi-0.dtd"
   xmlns="http://www.w3.org/2000/svg"
   xmlns:svg="http://www.w3.org/2000/svg"
   xmlns:rdf="http://www.w3.org/1999/02/22-rdf-syntax-ns#"
   xmlns:cc="http://creativecommons.org/ns#"
   xmlns:dc="http://purl.org/dc/elements/1.1/"><defs
   id="defs12"><inkscape:path-effect
     effect="fillet_chamfer"
     id="path-effect603"
     is_visible="true"
     lpeversion="1"
     satellites_param="F,0,0,1,0,46,0,2 @ F,0,0,1,0,46,0,2 @ F,0,0,1,0,46,0,2 @ F,0,0,1,0,46,0,2 @ F,0,0,1,0,46,0,2 @ F,0,0,1,0,46,0,2 @ F,0,0,1,0,46,0,2"
     unit="px"
     method="auto"
     mode="F"
     radius="46"
     chamfer_steps="2"
     flexible="false"
     use_knot_distance="true"
     apply_no_radius="true"
     apply_with_radius="true"
     only_selected="false"
     hide_knots="false" /><inkscape:path-effect
     effect="fillet_chamfer"
     id="path-effect445"
     is_visible="true"
     lpeversion="1"
     satellites_param="F,0,0,1,0,46,0,2 @ F,0,0,1,0,46,0,2 @ F,0,0,1,0,46,0,2 @ F,0,0,1,0,46,0,2 @ F,0,0,1,0,46,0,2 @ F,0,0,1,0,46,0,2 @ F,0,0,1,0,46,0,2"
     unit="px"
     method="auto"
     mode="F"
     radius="46"
     chamfer_steps="2"
     flexible="false"
     use_knot_distance="true"
     apply_no_radius="true"
     apply_with_radius="true"
     only_selected="false"
     hide_knots="false" /></defs><sodipodi:namedview
   pagecolor="#ffffff"
   bordercolor="#666666"
   borderopacity="1"
   objecttolerance="10"
   gridtolerance="10"
   guidetolerance="10"
   inkscape:pageopacity="0"
   inkscape:pageshadow="2"
   inkscape:window-width="1851"
   inkscape:window-height="1015"
   id="namedview10"
   showgrid="true"
   inkscape:zoom="0.6675088"
   inkscape:cx="704.85962"
   inkscape:cy="785.00838"
   inkscape:window-x="69"
   inkscape:window-y="28"
   inkscape:window-maximized="1"
   inkscape:current-layer="g2629"
   inkscape:pagecheckerboard="0"><inkscape:grid
     type="xygrid"
     id="grid952" /></sodipodi:namedview>
<metadata
   id="metadata2"> Svg Vector Icons : http://www.onlinewebfonts.com/icon <rdf:RDF><cc:Work
     rdf:about=""><dc:format>image/svg+xml</dc:format><dc:type
       rdf:resource="http://purl.org/dc/dcmitype/StillImage" /></cc:Work></rdf:RDF></metadata>
<path
   d="M 53.765363,491.51598 H 268.06538 a 46,46 45 0 1 46,46 v 398 a 46,46 45 0 0 46,46 l 275.5,0 a 46,46 135 0 0 46,-46 l 0,-398 a 46,46 135 0 1 46,-46 h 214.20007 a 19.053822,19.053822 112.5 0 0 13.47309,-32.52691 L 530.29229,34.042893 a 46.000004,46.000004 180 0 0 -65.05382,2e-6 L 40.292276,458.98907 a 19.053823,19.053823 67.500001 0 0 13.473087,32.52691 z"
   id="path4"
   style="fill:#55d400;stroke:#e6e6e6;stroke-width:23.9;stroke-miterlimit:4;stroke-dasharray:none;stroke-opacity:1"
   inkscape:path-effect="#path-effect445"
   inkscape:original-d="M 7.7653632,491.51598 H 314.06538 v 490 h 367.5 v -490 H 987.76545 L 497.76538,1.5159838 Z" />
<g
   id="g2629"
   transform="matrix(1.2105263,0,0,1.2105263,-425.78946,-211.12459)"><g
     id="g906"><g
       id="rect2158"><path
         style="color:#000000;fill:#ffffff;stroke-width:34.0157;stroke-linecap:round;stroke-linejoin:round;-inkscape-stroke:none"
         d="m 840,640 h 180 c 55.4,0 100,44.6 100,100 v 100 c 0,55.4 -44.6,100 -100,100 H 840 C 784.6,940 740,895.4 740,840 V 740 c 0,-55.4 44.6,-100 100,-100 z"
         id="path892" /><path
         style="color:#000000;fill:#e6e6e6;stroke-linecap:round;stroke-linejoin:round;-inkscape-stroke:none"
         d="m 840,622.99219 c -64.5281,0 -117.00781,52.47971 -117.00781,117.00781 v 100 c 0,64.5281 52.47971,117.00781 117.00781,117.00781 h 180 c 64.5281,0 117.0078,-52.47971 117.0078,-117.00781 V 740 c 0,-64.5281 -52.4797,-117.00781 -117.0078,-117.00781 z m 0,34.01562 h 180 c 46.2718,0 82.9922,36.7204 82.9922,82.99219 v 100 c 0,46.27179 -36.7204,82.99219 -82.9922,82.99219 H 840 c -46.27179,0 -82.99219,-36.7204 -82.99219,-82.99219 V 740 c 0,-46.27179 36.7204,-82.99219 82.99219,-82.99219 z"
         id="path894" /></g><g
       id="g869"><g
         id="path846"><path
           style="color:#000000;fill:#ffffff;stroke-width:34.0157;stroke-linecap:round;stroke-linejoin:round;-inkscape-stroke:none"
           d="m 972.99246,705.1899 a 97.788925,97.788925 0 0 1 52.25414,109.9848 97.788925,97.788925 0 0 1 -95.42777,75.63524 97.788925,97.788925 0 0 1 -95.14669,-75.98855 97.788925,97.788925 0 0 1 52.66161,-109.79029"
           id="path853" /><path
           style="color:#000000;fill:#ff0101;stroke-linecap:round;stroke-linejoin:round;-inkscape-stroke:none"
           d="m 888.55859,688.06836 a 17.007851,17.007851 0 0 0 -8.64648,1.6582 c -48.01983,23.28481 -73.71759,76.8623 -61.82031,128.88672 11.89727,52.02442 58.32794,89.10614 111.69531,89.20508 53.36736,0.0989 99.93529,-36.81107 112.02539,-88.79102 12.0901,-51.97994 -13.4086,-105.65057 -61.3418,-129.11328 a 17.007851,17.007851 0 0 0 -22.7539,7.79883 17.007851,17.007851 0 0 0 7.79882,22.75391 c 33.87326,16.58055 51.70978,54.12243 43.16598,90.85547 -8.5437,36.73302 -41.11851,62.55037 -78.83199,62.48046 -37.71349,-0.0699 -70.19013,-26.00897 -78.59766,-62.77343 -8.40753,-36.76447 9.56745,-74.24048 43.50196,-90.69532 a 17.007851,17.007851 0 0 0 7.88281,-22.72265 17.007851,17.007851 0 0 0 -14.07813,-9.54297 z"
           id="path855" /></g><g
         id="path1294"><path
           style="color:#000000;fill:#db0000;stroke-width:34.0157;stroke-linecap:round;-inkscape-stroke:none"
           d="m 930,689.18989 v 80"
           id="path859" /><path
           style="color:#000000;fill:#ff0000;stroke-linecap:round;-inkscape-stroke:none"
           d="m 930,672.18164 a 17.007851,17.007851 0 0 0 -17.00781,17.00781 v 80 A 17.007851,17.007851 0 0 0 930,786.19727 17.007851,17.007851 0 0 0 947.00781,769.18945 v -80 A 17.007851,17.007851 0 0 0 930,672.18164 Z"
           id="path861" /></g></g></g></g></svg>
