<?xml version="1.0" encoding="UTF-8" standalone="no"?>
<!-- Created with Inkscape (http://www.inkscape.org/) -->

<svg
   width="58.882401mm"
   height="58.882401mm"
   viewBox="0 0 58.882401 58.882401"
   version="1.1"
   id="svg5"
   xml:space="preserve"
   inkscape:version="1.2.2 (b0a8486541, 2022-12-01)"
   sodipodi:docname="Zeichnung.svg"
   xmlns:inkscape="http://www.inkscape.org/namespaces/inkscape"
   xmlns:sodipodi="http://sodipodi.sourceforge.net/DTD/sodipodi-0.dtd"
   xmlns="http://www.w3.org/2000/svg"
   xmlns:svg="http://www.w3.org/2000/svg"><sodipodi:namedview
     id="namedview7"
     pagecolor="#ffffff"
     bordercolor="#666666"
     borderopacity="1.0"
     inkscape:showpageshadow="2"
     inkscape:pageopacity="0.0"
     inkscape:pagecheckerboard="0"
     inkscape:deskcolor="#d1d1d1"
     inkscape:document-units="mm"
     showgrid="false"
     inkscape:zoom="0.77949635"
     inkscape:cx="113.53485"
     inkscape:cy="-11.545917"
     inkscape:window-width="1684"
     inkscape:window-height="905"
     inkscape:window-x="119"
     inkscape:window-y="97"
     inkscape:window-maximized="0"
     inkscape:current-layer="layer1" /><defs
     id="defs2" /><g
     inkscape:label="Ebene 1"
     inkscape:groupmode="layer"
     id="layer1"
     transform="translate(-43.579224,-152.53393)"><path
       style="fill:#e7e7e7;fill-opacity:1;stroke:none;stroke-width:0.665001;stroke-linecap:round;stroke-linejoin:round;paint-order:fill markers stroke"
       id="path3061"
       sodipodi:type="arc"
       sodipodi:cx="73.020424"
       sodipodi:cy="181.97513"
       sodipodi:rx="29.4412"
       sodipodi:ry="29.4412"
       sodipodi:start="5.340737"
       sodipodi:end="5.3379254"
       sodipodi:open="true"
       sodipodi:arc-type="arc"
       d="m 90.32623,158.15721 a 29.4412,29.4412 0 0 1 6.524273,41.10698 29.4412,29.4412 0 0 1 -41.102384,6.55316 29.4412,29.4412 0 0 1 -6.582056,-41.09776 29.4412,29.4412 0 0 1 41.093132,-6.61095" /><path
       style="fill:#ff9205;fill-opacity:1;stroke-width:0.0428631"
       d="m 61.033658,202.46053 c -0.10609,-0.0298 -0.37612,-0.13133 -0.60008,-0.22556 -0.22396,-0.0942 -0.52293,-0.216 -0.66438,-0.2706 -1.78464,-0.68898 -3.06577,-2.08176 -3.84509,-4.1802 -0.33511,-0.90232 -0.36491,-3.10038 -0.055,-4.06104 1.05207,-3.2618 4.83124,-5.55402 7.90784,-4.79643 1.27932,0.31503 2.6951,0.9352 2.82973,1.23955 0.15904,0.35954 0.281,0.28288 0.81363,-0.51141 0.24754,-0.36914 0.54563,-0.77933 0.66244,-0.91154 0.11681,-0.1322 0.23254,-0.3015 0.25718,-0.3762 0.17664,-0.5355 2.10624,0.38609 3.33468,1.59267 0.59207,0.58154 0.62117,0.66326 0.35437,0.99513 -0.082,0.10202 -0.22458,0.28194 -0.31679,0.39981 -0.1609,0.20568 -1.39905,2.62014 -1.59358,3.10758 -0.27061,0.67804 -0.69039,2.02227 -0.72952,2.33603 -0.10194,0.81747 -0.85424,2.50207 -1.38863,3.10956 -0.15458,0.17572 -0.41104,0.47012 -0.56991,0.65423 -0.40554,0.46997 -1.15546,1.01237 -1.73472,1.2547 -0.14776,0.0618 -0.50383,0.22555 -0.79127,0.36387 -0.68964,0.33185 -3.07307,0.50416 -3.87085,0.27985 z m 2.67169,-2.53906 c 1.15325,-0.39122 2.29522,-1.28833 2.47101,-1.94119 0.0248,-0.0921 0.12176,-0.29869 0.21543,-0.45899 1.18437,-2.02676 -0.26033,-5.21122 -2.60418,-5.74018 -0.15913,-0.0359 -0.35683,-0.0912 -0.43934,-0.12294 -1.27012,-0.48796 -3.91962,0.64033 -4.58963,1.95449 -0.47658,0.93476 -0.74678,2.80889 -0.47209,3.27445 0.0499,0.0846 0.10959,0.2378 0.13258,0.34039 0.0687,0.30652 0.29784,0.73641 0.53303,0.99999 0.1215,0.13617 0.26745,0.31394 0.32434,0.39506 0.0569,0.0811 0.13315,0.16941 0.16947,0.19621 0.0363,0.0268 0.20489,0.16515 0.37459,0.30742 0.42954,0.36013 0.74603,0.52363 1.50863,0.77935 1.12718,0.37797 1.30542,0.37917 2.37616,0.0159 z m 18.2455,2.53392 c -0.10609,-0.0348 -0.36161,-0.10355 -0.56782,-0.15267 -0.56818,-0.13533 -1.54465,-0.63355 -1.98278,-1.01167 -0.18846,-0.16264 -0.44965,-0.3746 -0.58042,-0.47102 -0.29544,-0.21783 -0.54036,-0.47338 -0.77341,-0.80697 -0.0988,-0.14145 -0.24278,-0.33434 -0.31992,-0.42864 -0.30243,-0.36969 -0.79685,-1.63032 -1.0675,-2.7218 -0.30977,-1.24924 -1.2929,-3.76796 -1.67269,-4.28533 -0.0839,-0.11435 -0.1791,-0.29594 -0.21148,-0.40353 -0.0617,-0.2051 -0.46949,-0.84152 -0.77013,-1.20202 -0.097,-0.11634 -0.25609,-0.32595 -0.35347,-0.46581 -0.86821,-1.24688 -3.52288,-3.22335 -4.29279,-3.1961 -0.34246,0.0121 -0.52638,-0.1275 -0.8827,-0.67006 -0.22523,-0.34295 -0.48507,-0.68419 -0.95944,-1.25998 -0.18248,-0.2215 -0.45716,-0.57166 -0.6104,-0.77815 -0.54222,-0.73065 -0.79054,-1.0515 -1.04744,-1.35337 -0.27106,-0.3185 -0.57497,-0.6988 -1.16974,-1.46383 -0.19395,-0.24947 -0.40871,-0.51283 -0.47723,-0.58523 -0.0685,-0.0724 -0.36197,-0.4499 -0.6521,-0.83888 -0.29013,-0.38898 -0.66541,-0.87119 -0.83395,-1.07158 -0.30103,-0.35789 -0.6109,-0.76022 -1.01911,-1.32322 -0.11332,-0.15628 -0.30705,-0.39988 -0.43051,-0.54132 -0.12347,-0.14145 -0.3187,-0.38256 -0.43384,-0.53579 -0.11515,-0.15324 -0.31683,-0.40211 -0.44819,-0.55306 -0.13135,-0.15094 -0.35455,-0.4323 -0.496,-0.62525 -0.54483,-0.74318 -0.87241,-1.16655 -1.07819,-1.39348 -0.11758,-0.12966 -0.27841,-0.33219 -0.35741,-0.45006 -0.079,-0.11787 -0.21683,-0.30302 -0.30628,-0.41143 -1.21691,-1.47478 -2.06395,-3.34964 -2.2638,-5.01075 -0.0269,-0.22396 -0.0818,-0.51329 -0.12195,-0.64295 -0.142,-0.45887 -0.10395,-2.08314 0.0638,-2.7218 0.47787,-1.81962 0.5485,-2.0338 0.91379,-2.77072 0.37299,-0.75245 0.51905,-0.89408 0.92205,-0.89408 0.18254,0 0.20665,0.0254 0.59413,0.62572 0.16887,0.26163 0.42961,0.60883 0.57943,0.77154 0.14982,0.16271 0.32251,0.37299 0.38375,0.46729 0.0612,0.0943 0.21941,0.30647 0.3515,0.47149 0.13208,0.16502 0.38183,0.51221 0.55499,0.77154 0.17316,0.25932 0.41345,0.59686 0.53396,0.7501 0.12051,0.15324 0.31099,0.40398 0.42328,0.55722 0.32753,0.44693 0.78387,1.05719 1.3354,1.78579 0.28262,0.37336 0.73365,1.00674 1.00228,1.40751 0.26863,0.40077 0.59288,0.86369 0.72055,1.02871 0.34555,0.44663 0.62119,0.81025 0.95849,1.26447 0.16631,0.22396 0.41235,0.55377 0.54674,0.73292 0.13439,0.17916 0.36972,0.49486 0.52296,0.70156 0.15323,0.2067 0.42848,0.55198 0.61166,0.76728 0.18318,0.2153 0.59461,0.78371 0.91429,1.26313 0.31968,0.47941 0.64442,0.94234 0.72164,1.02871 0.0772,0.0864 0.19327,0.2416 0.25789,0.34494 0.0646,0.10334 0.22842,0.32516 0.36401,0.49292 0.1356,0.16777 0.39719,0.52685 0.58133,0.79796 0.18414,0.27111 0.48197,0.66652 0.66185,0.87869 0.17987,0.21217 0.4609,0.5883 0.6245,0.83583 0.1636,0.24754 0.38466,0.55775 0.49124,0.68936 0.2263,0.27947 0.63433,0.85931 0.73582,1.04564 0.0388,0.0712 0.20866,0.28385 0.37745,0.47245 0.1688,0.1886 0.37683,0.44899 0.4623,0.57865 0.0855,0.12966 0.25456,0.35148 0.37576,0.49293 0.1212,0.14145 0.25754,0.31825 0.30298,0.39289 0.20335,0.33404 0.60398,0.91151 0.76823,1.10732 0.0989,0.11787 0.23396,0.30111 0.30017,0.4072 0.0662,0.10608 0.20718,0.28932 0.31324,0.4072 0.10606,0.11787 0.26105,0.3204 0.34441,0.45006 0.0834,0.12966 0.24919,0.3544 0.36851,0.49943 0.21082,0.25626 0.28662,0.36557 0.64557,0.93098 0.0943,0.14853 0.26479,0.37705 0.37888,0.50781 0.11409,0.13075 0.2684,0.33527 0.3429,0.45447 0.29527,0.47237 0.54636,0.81686 0.8491,1.16494 0.17429,0.20039 0.37199,0.45114 0.43935,0.55722 0.0674,0.10609 0.15668,0.23147 0.19849,0.27861 0.0418,0.0472 0.14307,0.21055 0.22501,0.36311 0.2446,0.45543 0.19032,0.46437 1.32549,-0.21832 1.63646,-0.98417 3.74497,-1.19395 5.45634,-0.54287 1.32545,0.50427 1.70753,0.74682 2.59717,1.64876 0.64329,0.65218 0.8564,0.91425 1.26051,1.5501 0.0707,0.11128 0.21237,0.31745 0.31476,0.45816 0.17592,0.24174 0.18495,0.26817 0.16396,0.47964 -0.0192,0.19308 -0.007,0.24603 0.0911,0.38577 0.0984,0.1406 0.11513,0.21284 0.1272,0.54773 0.0107,0.29777 0.0353,0.42488 0.10782,0.55722 0.14591,0.26636 0.14503,1.88753 -0.001,2.13489 -0.053,0.0898 -0.0964,0.22622 -0.0964,0.30327 0,0.43869 -0.30861,1.17169 -0.92249,2.19106 -0.67723,1.12455 -1.86469,2.09781 -3.1495,2.58137 -0.15324,0.0577 -0.46185,0.18465 -0.68581,0.28217 -0.45566,0.1984 -2.98082,0.29733 -3.47191,0.13601 z m 2.62149,-2.44682 c 0.19662,-0.085 0.45924,-0.19025 0.58361,-0.23385 1.05738,-0.37069 2.24479,-1.71861 2.47093,-2.80494 0.0344,-0.16503 0.0957,-0.3772 0.13627,-0.4715 0.37734,-0.87651 -0.35515,-2.8488 -1.37832,-3.71124 -0.17946,-0.15126 -0.43404,-0.3657 -0.56574,-0.47654 -1.54198,-1.29766 -4.3044,-0.87214 -5.68121,0.87511 -1.01336,1.28602 -1.21589,3.09909 -0.51127,4.57713 0.78211,1.64062 3.49564,2.87282 4.94573,2.24583 z m -11.02266,-12.78588 c 0.63761,-0.3296 0.76243,-1.05808 0.27204,-1.58775 -0.50347,-0.5438 -0.73153,-0.59683 -1.32445,-0.30802 -0.50981,0.24834 -0.55185,0.30853 -0.56944,0.81541 -0.0365,1.05285 0.71134,1.55104 1.62185,1.08036 z m 3.80759,-1.02227 c -0.0599,-0.0648 -0.20339,-0.29723 -0.31878,-0.51644 -0.11538,-0.21921 -0.29317,-0.4989 -0.3951,-0.62151 -0.10192,-0.12262 -0.26426,-0.33868 -0.36075,-0.48013 -0.0965,-0.14145 -0.26533,-0.36326 -0.37519,-0.49292 -0.10987,-0.12966 -0.26227,-0.32791 -0.33866,-0.44055 -0.0764,-0.11265 -0.25483,-0.33446 -0.39652,-0.49293 -0.14168,-0.15847 -0.378,-0.47136 -0.52514,-0.69532 -0.45083,-0.68619 -0.49164,-0.745 -0.62867,-0.90578 -0.31959,-0.375 0.0439,-1.25716 0.90535,-2.19708 0.28592,-0.31198 0.72966,-0.89592 1.25758,-1.65494 0.22136,-0.31826 0.58696,-0.81012 0.81244,-1.09301 0.22548,-0.2829 0.46381,-0.61791 0.52962,-0.74448 0.0658,-0.12656 0.24628,-0.37731 0.40104,-0.55722 0.15476,-0.1799 0.43382,-0.54892 0.62013,-0.82003 0.32459,-0.47233 1.31525,-1.80971 2.31779,-3.129 0.25976,-0.34183 0.5756,-0.77582 0.70187,-0.96442 0.12627,-0.1886 0.59763,-0.83101 1.04746,-1.42759 0.80895,-1.07284 1.24734,-1.68306 1.80739,-2.51581 0.15854,-0.23575 0.43031,-0.59852 0.60392,-0.80615 0.17362,-0.20763 0.65604,-0.8345 1.07206,-1.39305 0.41602,-0.55854 0.89303,-1.1953 1.06002,-1.415 0.167,-0.21971 0.429,-0.58522 0.58223,-0.81224 0.43333,-0.64198 0.81783,-0.80013 1.13296,-0.466 0.33186,0.35188 1.00382,1.90618 1.09138,2.52444 0.0218,0.15422 0.0716,0.32913 0.11066,0.38869 0.051,0.0778 0.0775,0.24513 0.094,0.59373 0.0175,0.36734 0.0441,0.52716 0.10947,0.6569 0.13848,0.27486 0.13948,1.52992 10e-4,1.71453 -0.0837,0.11188 -0.0994,0.1982 -0.12055,0.66437 -0.0139,0.30506 -0.0584,0.665 -0.10355,0.83583 -0.0436,0.16503 -0.0923,0.3772 -0.10826,0.4715 -0.10338,0.61016 -0.82611,2.18709 -1.35919,2.96561 -0.36421,0.53189 -1.63863,2.21686 -1.85803,2.45657 -0.0971,0.10609 -0.25974,0.30861 -0.36144,0.45006 -0.1017,0.14145 -0.29449,0.38256 -0.42843,0.53579 -0.13393,0.15324 -0.39031,0.47149 -0.56973,0.70724 -0.17942,0.23575 -0.37163,0.47685 -0.42715,0.53579 -0.0555,0.0589 -0.36942,0.46399 -0.69757,0.90013 -0.32814,0.43613 -0.67553,0.87976 -0.77197,0.98585 -0.0965,0.10608 -0.25125,0.29897 -0.344,0.42863 -0.0927,0.12966 -0.28452,0.37076 -0.42616,0.53579 -0.14164,0.16502 -0.3428,0.41577 -0.44703,0.55722 -0.16363,0.22207 -0.57768,0.72897 -0.64772,0.79296 -0.0457,0.0418 -0.66548,0.86845 -0.83789,1.11762 -0.0962,0.13911 -0.25121,0.34478 -0.34436,0.45706 -0.0931,0.11228 -0.24408,0.31023 -0.3354,0.43989 -0.0913,0.12966 -0.28428,0.37076 -0.4288,0.53579 -0.14451,0.16502 -0.34748,0.41577 -0.45104,0.55722 -0.10356,0.14145 -0.28775,0.37291 -0.40931,0.51435 -0.12156,0.14145 -0.30483,0.37291 -0.40727,0.51436 -0.50891,0.70271 -0.86956,0.98273 -1.03511,0.80368 z"
       id="path314" /></g></svg>
